<svg width="642" height="561" viewBox="0 0 642 561" fill="none" xmlns="http://www.w3.org/2000/svg">
<path opacity="0.09" d="M375.629 555.554C375.629 557.9 438.475 560.623 510.888 560.623C583.301 560.623 642.002 558.723 642.002 556.376C642.002 554.03 583.299 552.129 510.888 552.129C438.477 552.129 375.629 553.21 375.629 555.554Z" fill="#32323F"/>
<path d="M621.072 422.508H453.082C448.69 422.508 445.129 426.068 445.129 430.461V548.645C445.129 553.037 448.69 556.598 453.082 556.598H621.072C625.464 556.598 629.025 553.037 629.025 548.645V430.461C629.025 426.068 625.464 422.508 621.072 422.508Z" fill="#FDFFFD"/>
<path d="M629.021 430.461V438.541C593.391 438.327 473.109 437.578 445.125 437.463V430.461C445.125 426.069 448.686 422.508 453.078 422.508H621.07C625.462 422.508 629.023 426.069 629.023 430.461H629.021Z" fill="#0267A4"/>
<path d="M457.883 431.258C458.16 429.553 457.002 427.946 455.297 427.669C453.592 427.393 451.985 428.551 451.708 430.256C451.431 431.961 452.589 433.568 454.294 433.844C456 434.121 457.606 432.963 457.883 431.258Z" fill="#C1C1C6"/>
<path d="M466.069 432.955C467.29 431.733 467.29 429.753 466.069 428.531C464.847 427.31 462.867 427.31 461.645 428.531C460.424 429.753 460.424 431.733 461.645 432.955C462.867 434.176 464.847 434.176 466.069 432.955Z" fill="#C1C1C6"/>
<path d="M475.625 431.258C475.902 429.553 474.744 427.946 473.039 427.669C471.334 427.393 469.727 428.551 469.45 430.256C469.174 431.961 470.332 433.568 472.037 433.844C473.742 434.121 475.349 432.963 475.625 431.258Z" fill="#C1C1C6"/>
<path d="M481.239 446.851H458.95C457.036 446.851 455.484 448.403 455.484 450.317V460.209C455.484 462.123 457.036 463.675 458.95 463.675H481.239C483.153 463.675 484.705 462.123 484.705 460.209V450.317C484.705 448.403 483.153 446.851 481.239 446.851Z" fill="#C1C1C6"/>
<path d="M617.018 469.049H454.578V470.268H617.018V469.049Z" fill="#C1C1C6"/>
<path d="M609.164 446.516H545.442C543.22 446.516 541.418 448.317 541.418 450.54V455.774C541.418 457.996 543.22 459.798 545.442 459.798H609.164C611.387 459.798 613.188 457.996 613.188 455.774V450.54C613.188 448.317 611.387 446.516 609.164 446.516Z" fill="#E5E5E5"/>
<path d="M459.229 475.357H511.407C513.882 475.357 515.89 477.366 515.89 479.84V506.673C515.89 509.147 513.882 511.156 511.407 511.156H459.229C456.755 511.156 454.746 509.147 454.746 506.673V479.84C454.746 477.366 456.755 475.357 459.229 475.357Z" fill="#E5E5E5"/>
<path opacity="0.27" d="M581.017 477.349L525.309 477.038L525.29 480.375L580.998 480.687L581.017 477.349Z" fill="#3B3B4C"/>
<path opacity="0.27" d="M580.032 488.319L524.324 488.008L524.306 491.346L580.014 491.657L580.032 488.319Z" fill="#3B3B4C"/>
<path opacity="0.27" d="M580.052 497.922L524.344 497.611L524.325 500.949L580.033 501.26L580.052 497.922Z" fill="#3B3B4C"/>
<path opacity="0.27" d="M579.563 507.9L523.855 507.589L523.837 510.927L579.545 511.238L579.563 507.9Z" fill="#3B3B4C"/>
<path opacity="0.27" d="M578.099 518.375L522.391 518.064L522.372 521.402L578.08 521.713L578.099 518.375Z" fill="#3B3B4C"/>
<path opacity="0.27" d="M511.435 541.363L455.727 541.052L455.708 544.39L511.416 544.701L511.435 541.363Z" fill="#3B3B4C"/>
<path opacity="0.27" d="M576.024 529.877L520.316 529.566L520.298 532.904L576.006 533.215L576.024 529.877Z" fill="#3B3B4C"/>
<path opacity="0.27" d="M549.284 542.187L519.672 542.021L519.653 545.359L549.265 545.525L549.284 542.187Z" fill="#3B3B4C"/>
<path d="M572.021 476.013L566.086 475.979L566.05 482.352L571.986 482.385L572.021 476.013Z" fill="white"/>
<path d="M550.157 475.122L543.492 475.085L543.444 483.743L550.109 483.781L550.157 475.122Z" fill="white"/>
<path d="M563.107 487.797L556.078 487.757L556.048 493.074L563.077 493.113L563.107 487.797Z" fill="white"/>
<path d="M579.847 496.884L576.098 496.863L576.06 503.694L579.809 503.715L579.847 496.884Z" fill="white"/>
<path d="M548.719 495.95L541.117 495.908L541.076 503.226L548.678 503.269L548.719 495.95Z" fill="white"/>
<path d="M560.542 506.71L557.457 506.692L557.423 512.825L560.507 512.842L560.542 506.71Z" fill="white"/>
<path d="M577.573 506.805L574.168 506.786L574.134 512.918L577.539 512.937L577.573 506.805Z" fill="white"/>
<path d="M579.877 514.694L566.48 514.62L566.428 524.025L579.825 524.1L579.877 514.694Z" fill="white"/>
<path d="M587.809 496.928L579.844 496.884L579.806 503.715L587.771 503.76L587.809 496.928Z" fill="white"/>
<path d="M564.906 528.7L555.848 528.649L555.815 534.414L564.874 534.464L564.906 528.7Z" fill="white"/>
<path d="M534.794 526.919L529.066 526.887L529.02 535.232L534.747 535.264L534.794 526.919Z" fill="white"/>
<path opacity="0.27" d="M512.571 518.472L456.863 518.161L456.845 521.499L512.553 521.81L512.571 518.472Z" fill="#3B3B4C"/>
<path opacity="0.27" d="M511.583 529.44L455.875 529.128L455.856 532.466L511.564 532.777L511.583 529.44Z" fill="#3B3B4C"/>
<path d="M503.572 517.134L497.637 517.101L497.601 523.474L503.536 523.507L503.572 517.134Z" fill="white"/>
<path d="M481.712 516.244L475.047 516.207L474.999 524.865L481.663 524.902L481.712 516.244Z" fill="white"/>
<path d="M494.653 528.918L487.625 528.879L487.595 534.195L494.624 534.234L494.653 528.918Z" fill="white"/>
<path d="M510.12 538.256L506.371 538.235L506.333 545.066L510.082 545.087L510.12 538.256Z" fill="white"/>
<path d="M478.989 537.327L471.387 537.284L471.346 544.603L478.948 544.645L478.989 537.327Z" fill="white"/>
<path d="M517.829 538.557L509.863 538.512L509.825 545.344L517.791 545.388L517.829 538.557Z" fill="white"/>
<path d="M458.899 499.044C463.926 499.044 468.001 494.969 468.001 489.942C468.001 484.915 463.926 480.84 458.899 480.84C453.872 480.84 449.797 484.915 449.797 489.942C449.797 494.969 453.872 499.044 458.899 499.044Z" fill="#3B3B4C"/>
<path d="M458.898 495.259C461.834 495.259 464.215 492.878 464.215 489.942C464.215 487.006 461.834 484.626 458.898 484.626C455.962 484.626 453.582 487.006 453.582 489.942C453.582 492.878 455.962 495.259 458.898 495.259Z" fill="#F7E6CD"/>
<path d="M323.363 510.051L303.977 509.06C296.598 508.683 290.801 502.858 290.703 495.587C290.697 495.148 291.013 494.769 291.448 494.702C292.92 494.477 295.725 494.507 297.082 494.778C297.398 494.841 297.63 495.105 297.667 495.423C297.879 497.287 298.615 498.873 299.836 500.224C301.384 501.936 303.583 503.062 306.07 503.187L322.127 504.01C327.101 504.265 331.342 500.438 331.595 495.462C331.723 492.975 330.829 490.671 329.283 488.957C327.738 487.243 325.536 486.119 323.049 485.994L306.992 485.171C302.169 484.924 298.106 488.13 297.628 492.875C297.617 492.975 297.552 493.057 297.457 493.087C296.041 493.561 291.924 493.7 290.915 492.734C290.863 492.685 290.837 492.613 290.84 492.542C291.24 484.732 297.894 478.725 305.704 479.125L324.894 480.108C332.714 480.509 338.728 487.173 338.329 494.992L338.247 496.616C337.847 504.436 331.182 510.45 323.363 510.051Z" fill="#F4AD00"/>
<path opacity="0.09" d="M120 555.556C120 557.903 170.053 560.626 227.725 560.626C285.397 560.626 332.149 558.725 332.149 556.379C332.149 554.032 285.397 552.132 227.725 552.132C170.053 552.132 120 553.212 120 555.556Z" fill="#32323F"/>
<path d="M466.646 479.675C466.579 479.242 466.204 478.92 465.765 478.926C464.276 478.946 461.511 479.442 460.219 479.933C459.92 480.048 459.734 480.344 459.749 480.667C459.754 480.738 459.756 480.807 459.756 480.879C459.799 482.221 459.546 483.468 459.022 484.628C458.847 485.016 458.641 485.392 458.405 485.762C457.524 487.143 456.269 488.286 454.747 489.022C454.381 489.202 453.998 489.358 453.6 489.483C453.587 489.635 453.58 489.786 453.58 489.942C453.58 491.2 454.017 492.356 454.747 493.263C455.31 493.968 456.05 494.527 456.896 494.869C459.929 493.945 462.462 492.094 464.204 489.7C465.258 488.254 466.025 486.609 466.442 484.849C466.834 483.202 466.919 481.453 466.644 479.678L466.646 479.675ZM458.134 475.493C458.676 476.27 459.098 477.162 459.366 478.149C459.39 478.247 459.47 478.316 459.567 478.331C461.044 478.565 465.126 478.019 465.962 476.898C466.005 476.842 466.018 476.768 466.003 476.697C465.901 476.24 465.78 475.792 465.639 475.359C465.011 473.426 463.994 471.707 462.693 470.27C462.304 469.837 461.888 469.428 461.446 469.051C458.918 466.865 455.647 465.592 452.193 465.592C451.182 465.592 450.153 465.703 449.123 465.93L445.127 466.813L430.362 470.075C422.717 471.766 417.888 479.336 419.58 486.979L419.931 488.568C421.622 496.211 429.189 501.04 436.835 499.35L445.127 497.514V491.399L437.051 493.185C432.187 494.261 427.373 491.187 426.297 486.323C425.76 483.892 426.256 481.472 427.498 479.524C428.743 477.578 430.726 476.106 433.157 475.569L445.127 472.922L448.855 472.099C452.556 471.281 456.152 472.638 458.132 475.489L458.134 475.493Z" fill="#F4AD00"/>
<path d="M399.197 496.412L418.399 499.246C425.709 500.324 432.537 495.752 434.061 488.641C434.154 488.21 433.918 487.777 433.504 487.626C432.106 487.115 429.348 486.595 427.965 486.593C427.642 486.593 427.363 486.805 427.266 487.111C426.69 488.896 425.657 490.308 424.196 491.392C422.343 492.769 419.965 493.438 417.501 493.074L401.595 490.728C396.669 490 393.262 485.416 393.989 480.487C394.353 478.024 395.68 475.939 397.532 474.562C399.385 473.186 401.764 472.517 404.228 472.88L420.133 475.227C424.911 475.932 428.266 479.872 427.803 484.619C427.794 484.719 427.842 484.812 427.928 484.862C429.223 485.604 433.234 486.548 434.411 485.799C434.472 485.76 434.513 485.697 434.522 485.626C435.662 477.889 430.318 470.694 422.582 469.553L403.574 466.748C395.827 465.605 388.621 470.958 387.478 478.705L387.24 480.314C386.097 488.061 391.45 495.267 399.197 496.41V496.412Z" fill="#F4AD00"/>
<path d="M370.293 499.822L389.526 497.187C396.847 496.185 402.128 489.888 401.609 482.637C401.576 482.197 401.23 481.847 400.791 481.816C399.306 481.717 396.511 481.985 395.182 482.37C394.872 482.459 394.665 482.743 394.654 483.063C394.6 484.94 394 486.581 392.9 488.031C391.504 489.869 389.407 491.176 386.941 491.514L371.012 493.696C366.076 494.371 361.529 490.919 360.851 485.983C360.513 483.515 361.206 481.145 362.602 479.305C363.998 477.465 366.096 476.16 368.561 475.822L384.491 473.64C389.275 472.985 393.595 475.835 394.474 480.522C394.491 480.619 394.565 480.697 394.662 480.719C396.113 481.072 400.228 480.859 401.15 479.812C401.197 479.758 401.219 479.686 401.208 479.615C400.148 471.868 393.007 466.447 385.259 467.508L366.224 470.116C358.466 471.179 353.039 478.329 354.102 486.087L354.322 487.698C355.385 495.456 362.535 500.882 370.293 499.819V499.822Z" fill="#F4AD00"/>
<path d="M341.505 511.335L360.491 507.29C367.716 505.751 372.519 499.081 371.467 491.888C371.405 491.453 371.032 491.129 370.591 491.131C369.101 491.142 366.335 491.613 365.038 492.096C364.738 492.209 364.549 492.505 364.564 492.826C364.649 494.7 364.173 496.382 363.181 497.91C361.924 499.846 359.93 501.304 357.495 501.824L341.771 505.175C336.9 506.214 332.108 503.105 331.069 498.233C330.549 495.798 331.069 493.382 332.324 491.445C333.58 489.507 335.576 488.05 338.011 487.531L353.735 484.18C358.456 483.174 362.978 485.697 364.199 490.306C364.224 490.401 364.302 490.473 364.4 490.49C365.874 490.735 369.961 490.219 370.803 489.107C370.846 489.048 370.861 488.975 370.846 488.905C369.216 481.258 361.696 476.379 354.049 478.009L335.257 482.013C327.599 483.645 322.713 491.176 324.346 498.835L324.685 500.426C326.318 508.084 333.848 512.97 341.507 511.338L341.505 511.335Z" fill="#F4AD00"/>
<path d="M308.105 422.508H140.115C135.723 422.508 132.164 426.071 132.164 430.458V548.645C132.164 553.037 135.725 556.596 140.115 556.596H308.105C312.497 556.596 316.056 553.035 316.056 548.645V430.458C316.056 426.069 312.495 422.508 308.105 422.508ZM297.879 488.3C294.944 488.3 292.563 485.921 292.563 482.983C292.563 480.046 294.944 477.667 297.879 477.667C300.815 477.667 303.198 480.046 303.198 482.983C303.198 485.921 300.817 488.3 297.879 488.3Z" fill="#FDFFFD"/>
<path d="M316.06 430.461V438.541C280.43 438.327 160.148 437.578 132.164 437.463V430.461C132.164 426.069 135.725 422.508 140.117 422.508H308.109C312.501 422.508 316.062 426.069 316.062 430.461H316.06Z" fill="#0267A4"/>
<path d="M144.867 431.46C145.262 429.779 144.218 428.095 142.536 427.701C140.854 427.306 139.171 428.35 138.777 430.032C138.382 431.714 139.426 433.397 141.108 433.791C142.79 434.186 144.473 433.142 144.867 431.46Z" fill="#C1C1C6"/>
<path d="M153.987 431.262C154.263 429.556 153.104 427.951 151.398 427.675C149.693 427.399 148.087 428.558 147.812 430.264C147.536 431.969 148.695 433.575 150.4 433.851C152.106 434.126 153.712 432.967 153.987 431.262Z" fill="#C1C1C6"/>
<path d="M162.125 432.534C163.111 431.115 162.76 429.166 161.342 428.18C159.923 427.194 157.974 427.545 156.988 428.963C156.002 430.382 156.353 432.331 157.772 433.317C159.19 434.303 161.139 433.952 162.125 432.534Z" fill="#C1C1C6"/>
<path d="M168.278 446.851H145.989C144.075 446.851 142.523 448.403 142.523 450.317V460.209C142.523 462.123 144.075 463.675 145.989 463.675H168.278C170.192 463.675 171.744 462.123 171.744 460.209V450.317C171.744 448.403 170.192 446.851 168.278 446.851Z" fill="#C1C1C6"/>
<path d="M304.053 469.049H141.613V470.268H304.053V469.049Z" fill="#C1C1C6"/>
<path d="M296.203 446.516H232.481C230.259 446.516 228.457 448.317 228.457 450.54V455.774C228.457 457.996 230.259 459.798 232.481 459.798H296.203C298.426 459.798 300.227 457.996 300.227 455.774V450.54C300.227 448.317 298.426 446.516 296.203 446.516Z" fill="#E5E5E5"/>
<path d="M146.268 475.357H198.446C200.921 475.357 202.929 477.366 202.929 479.84V506.673C202.929 509.147 200.921 511.156 198.446 511.156H146.268C143.794 511.156 141.785 509.147 141.785 506.673V479.84C141.785 477.366 143.794 475.357 146.268 475.357Z" fill="#E5E5E5"/>
<path opacity="0.27" d="M268.06 477.352L212.352 477.041L212.333 480.379L268.041 480.69L268.06 477.352Z" fill="#3B3B4C"/>
<path opacity="0.27" d="M267.071 488.321L211.363 488.01L211.345 491.348L267.053 491.659L267.071 488.321Z" fill="#3B3B4C"/>
<path opacity="0.27" d="M267.091 497.923L211.383 497.612L211.364 500.95L267.072 501.261L267.091 497.923Z" fill="#3B3B4C"/>
<path opacity="0.27" d="M266.603 507.903L210.895 507.592L210.876 510.93L266.584 511.241L266.603 507.903Z" fill="#3B3B4C"/>
<path opacity="0.27" d="M265.134 518.379L209.426 518.067L209.407 521.405L265.115 521.716L265.134 518.379Z" fill="#3B3B4C"/>
<path opacity="0.27" d="M198.47 541.364L142.762 541.053L142.743 544.391L198.451 544.702L198.47 541.364Z" fill="#3B3B4C"/>
<path opacity="0.27" d="M263.06 529.878L207.352 529.567L207.333 532.905L263.041 533.216L263.06 529.878Z" fill="#3B3B4C"/>
<path opacity="0.27" d="M236.323 542.19L206.711 542.025L206.692 545.363L236.304 545.528L236.323 542.19Z" fill="#3B3B4C"/>
<path d="M259.06 476.016L253.125 475.982L253.089 482.355L259.025 482.388L259.06 476.016Z" fill="white"/>
<path d="M237.2 475.123L230.535 475.086L230.487 483.744L237.152 483.782L237.2 475.123Z" fill="white"/>
<path d="M250.142 487.8L243.113 487.761L243.084 493.077L250.112 493.116L250.142 487.8Z" fill="white"/>
<path d="M266.882 496.885L263.133 496.864L263.095 503.696L266.844 503.717L266.882 496.885Z" fill="white"/>
<path d="M235.754 495.952L228.152 495.909L228.111 503.228L235.714 503.27L235.754 495.952Z" fill="white"/>
<path d="M247.577 506.713L244.492 506.696L244.458 512.828L247.542 512.845L247.577 506.713Z" fill="white"/>
<path d="M264.612 506.808L261.207 506.789L261.173 512.921L264.578 512.94L264.612 506.808Z" fill="white"/>
<path d="M266.916 514.698L253.52 514.623L253.467 524.028L266.864 524.103L266.916 514.698Z" fill="white"/>
<path d="M274.849 496.929L266.883 496.885L266.845 503.716L274.81 503.761L274.849 496.929Z" fill="white"/>
<path d="M251.946 528.703L242.887 528.653L242.855 534.417L251.913 534.468L251.946 528.703Z" fill="white"/>
<path d="M221.829 526.923L216.102 526.891L216.055 535.235L221.782 535.267L221.829 526.923Z" fill="white"/>
<path opacity="0.27" d="M199.606 518.474L143.898 518.163L143.88 521.5L199.588 521.812L199.606 518.474Z" fill="#3B3B4C"/>
<path opacity="0.27" d="M198.622 529.442L142.914 529.131L142.895 532.469L198.603 532.78L198.622 529.442Z" fill="#3B3B4C"/>
<path d="M190.611 517.138L184.676 517.104L184.64 523.477L190.576 523.51L190.611 517.138Z" fill="white"/>
<path d="M168.751 516.245L162.086 516.208L162.038 524.866L168.702 524.903L168.751 516.245Z" fill="white"/>
<path d="M181.693 528.922L174.664 528.882L174.634 534.199L181.663 534.238L181.693 528.922Z" fill="white"/>
<path d="M197.159 538.259L193.41 538.238L193.372 545.07L197.121 545.091L197.159 538.259Z" fill="white"/>
<path d="M166.028 537.33L158.426 537.288L158.385 544.606L165.987 544.649L166.028 537.33Z" fill="white"/>
<path d="M204.868 538.56L196.902 538.516L196.864 545.347L204.83 545.392L204.868 538.56Z" fill="white"/>
<path d="M297.881 473.881C292.855 473.881 288.781 477.955 288.781 482.983C288.781 488.012 292.855 492.085 297.881 492.085C302.908 492.085 306.984 488.012 306.984 482.983C306.984 477.955 302.91 473.881 297.881 473.881ZM297.881 488.299C294.946 488.299 292.565 485.921 292.565 482.983C292.565 480.046 294.946 477.667 297.881 477.667C300.817 477.667 303.2 480.046 303.2 482.983C303.2 485.921 300.819 488.299 297.881 488.299Z" fill="#3B3B4C"/>
<path d="M451.733 467.458C453.174 465.967 454.352 465.203 455.737 464.995C457.229 464.772 459.244 466.586 458.945 467.233C458.646 467.88 455.861 468.302 455.363 469.348C454.865 470.394 451.73 467.458 451.73 467.458H451.733Z" fill="#EFAEA6"/>
<path d="M324.894 480.11L316.054 479.658V485.637L323.048 485.994C325.535 486.122 327.734 487.245 329.282 488.957C330.829 490.672 331.721 492.973 331.596 495.46C331.34 500.436 327.1 504.261 322.125 504.008L316.054 503.698L306.068 503.188C303.581 503.06 301.382 501.934 299.834 500.224C298.613 498.873 297.877 497.287 297.663 495.423C297.626 495.101 297.395 494.839 297.078 494.778C295.723 494.505 292.916 494.477 291.446 494.702C291.009 494.769 290.693 495.148 290.699 495.588C290.799 502.859 296.596 508.681 303.975 509.06L316.054 509.679L323.359 510.052C331.18 510.452 337.843 504.439 338.243 496.618L338.325 494.994C338.726 487.174 332.71 480.511 324.892 480.11H324.894ZM297.457 493.09C297.553 493.057 297.62 492.975 297.628 492.875C297.654 492.605 297.693 492.343 297.745 492.083C298.055 490.455 298.804 489.035 299.862 487.914C300.503 487.232 301.258 486.661 302.098 486.219C302.789 485.321 303.198 484.202 303.198 482.983C303.198 481.63 302.691 480.392 301.858 479.455C298.265 480.264 295.163 482.45 293.173 485.455C292.388 486.637 291.777 487.949 291.377 489.351C291.082 490.371 290.901 491.438 290.844 492.542C290.842 492.613 290.868 492.683 290.92 492.735C291.927 493.7 296.046 493.559 297.459 493.087L297.457 493.09Z" fill="#F4AD00"/>
<path d="M443.031 473.379C445.319 473.677 451.092 466.714 451.784 466.688C452.304 466.668 456.904 469.532 455.663 470.32C454.644 470.967 445.654 480.05 442.431 479.946C438.944 479.834 432.881 469.203 428.549 473.151C426.181 475.309 425.625 459.257 428.943 461.179C429.712 461.625 441.777 473.218 443.026 473.381L443.031 473.379Z" fill="#0267A4"/>
<path opacity="0.18" d="M443.031 473.379C445.319 473.677 451.092 466.714 451.784 466.688C452.304 466.668 456.904 469.532 455.663 470.32C454.644 470.967 445.654 480.05 442.431 479.946C438.944 479.834 432.881 469.203 428.549 473.151C426.181 475.309 425.625 459.257 428.943 461.179C429.712 461.625 441.777 473.218 443.026 473.381L443.031 473.379Z" fill="#1F1F39"/>
<path d="M434.68 551.641C434.769 549.976 434.44 545.779 434.44 545.779L429.801 545.82L430.355 552.117L433.513 553.989L434.68 551.638V551.641Z" fill="white"/>
<path d="M435.007 550.929C435.492 550.816 435.293 551.258 435.474 551.955C435.892 553.548 442.003 553.567 442.925 553.708C443.401 553.779 444.178 556.122 441.812 556.122C439.765 556.122 433.21 556.145 430.97 556.13C430.502 556.128 430.091 555.827 429.976 555.396C429.567 553.857 429.667 551.465 430.29 551.411C431.234 551.121 432.983 551.396 435.007 550.929Z" fill="#1F1F39"/>
<path d="M390.921 546.171C392.313 545.156 395.464 542.199 395.464 542.199L392.423 538.87L387.734 543.353L388.28 546.851L390.921 546.171Z" fill="white"/>
<path d="M391.704 545.948C392.109 546.227 391.624 546.368 391.184 546.95C390.178 548.286 394.122 552.719 394.609 553.476C394.86 553.868 393.485 555.948 391.95 554.236C390.624 552.755 386.357 548.028 384.915 546.398C384.615 546.058 384.589 545.565 384.859 545.203C385.827 543.909 387.81 542.43 388.258 542.848C389.102 543.342 390.015 544.785 391.702 545.946L391.704 545.948Z" fill="#1F1F39"/>
<path d="M421.06 486.99C423.679 493.988 430.985 518.868 431.509 522.518C432.032 526.168 435.173 547.015 435 548.232C430.463 549.145 428.61 549.002 428.61 549.002C428.086 545.959 426.567 529.936 424.341 524.763C422.116 519.589 415.518 504.411 415.518 504.411C414.055 511.106 413.317 519.033 410.54 526.074C406.219 535.222 394.331 544.428 394.331 544.428C391.015 542.45 388.919 540.625 389.443 540.471C392.063 537.125 403.407 527.386 403.931 523.429C404.455 519.472 403.31 499.954 404.823 490.328C404.979 489.332 419.568 487.351 419.568 487.351L421.062 486.988L421.06 486.99Z" fill="#3B3B4C"/>
<path opacity="0.57" d="M417.92 509.398C416.539 506.517 415.52 504.413 415.52 504.413C415.918 502.4 416.208 500.041 416.208 500.041C416.208 500.041 417.65 505.956 417.92 509.398Z" fill="#1F1F39"/>
<path opacity="0.28" d="M404.016 503.893C405.81 502.475 410.685 497.289 412.31 491.938L404.613 491.877C404.21 495.278 404.059 499.564 404.018 503.893H404.016Z" fill="#1F1F39"/>
<path d="M422.441 464.452L427.074 466.049C427.074 466.049 429.829 464.125 429.037 463.224C428.433 462.538 428.208 461.575 428.165 460.657C428.119 459.64 428.299 458.679 428.448 458.224C428.559 457.889 428.671 457.763 428.738 457.715C428.775 457.689 428.801 457.687 428.801 457.687L428.749 457.663L426.825 456.748L426.745 456.544L426.084 454.841C426.084 454.841 424.771 455.83 424.145 457.612C423.574 459.235 422.697 462.59 422.441 464.456V464.452Z" fill="#EFAEA6"/>
<path opacity="0.14" d="M428.163 460.657C428.118 459.64 428.297 458.679 428.447 458.224C428.557 457.889 428.67 457.763 428.737 457.716C428.741 457.698 428.746 457.679 428.748 457.662C429.01 456.071 427.107 456.356 427.107 456.356C427.107 456.356 426.951 456.426 426.745 456.543C426.438 456.718 426.016 456.997 425.823 457.309C424.999 458.651 425.594 461.186 428.163 460.66V460.657Z" fill="#191939"/>
<path d="M432.412 453.624C432.064 454.882 432.572 457.668 431.713 457.387C430.854 457.105 430.979 460.045 430.053 459.776C427.806 459.129 425.752 456.956 425.847 455.835C425.942 454.713 427.165 451.891 427.165 451.891L432.414 453.624H432.412Z" fill="#EFAEA6"/>
<path d="M429.685 454.059C430.356 454.365 430.32 454.531 430.895 454.462C431.471 454.393 430.863 453.471 431.833 453.62C432.802 453.772 433.826 454.042 434.296 453.068C434.973 451.659 433.547 451.451 432.655 451.352C432.082 451.287 432.363 450.131 431.276 449.834C430.426 449.6 430.35 450.103 429.579 449.925C429.114 449.819 428.499 448.823 427.603 449.115C425.94 449.659 426.588 451.196 425.122 451.875C423.412 452.668 425.388 456.177 425.843 455.977C426.373 455.744 426.252 454.311 426.761 454.148C427.529 453.904 427.421 454.423 427.757 455.044C428.116 455.709 429.105 456.062 428.815 454.908C428.525 453.756 429.079 453.782 429.685 454.059Z" fill="#191939"/>
<path d="M423.161 458.774C424.929 458.811 425.258 461.737 426.559 462.229C427.349 462.527 427.204 461.06 427.695 460.802C427.999 460.644 428.345 460.601 428.529 461.22C431.518 471.363 420.786 492.183 420.786 492.183C420.786 492.183 417.165 494.265 408.896 490.15C404.25 487.838 408.326 485.189 408.82 484.107C409.316 483.024 418.565 461.796 418.565 461.796C418.565 461.796 420.065 460.22 423.161 458.774Z" fill="white"/>
<path d="M423.098 458.789C410.968 462.328 411.989 469.467 407.498 479.18C406.026 481.901 407.24 481.957 405.394 485.713C404.781 486.955 403.742 488.167 402.796 489.001C401.58 489.674 399.889 490.83 400.525 491.717C403.608 495.995 408.965 494.049 411.381 492.687C413.678 491.395 411.992 490.717 413.667 487.234C413.825 486.908 413.998 486.572 414.182 486.23C414.63 485.41 415.15 484.574 415.697 483.845C416.511 482.767 417.693 481.474 418.823 480.102C419.366 479.442 419.899 478.762 420.371 478.078C420.853 477.379 421.278 476.675 421.587 475.985C421.598 475.965 421.605 475.944 421.615 475.926C422.235 474.688 422.598 472.959 422.815 471.058C423.334 466.458 422.962 460.852 423.092 458.791L423.098 458.789ZM401.74 489.793C401.798 489.756 401.878 489.704 401.974 489.646C401.891 489.7 401.816 489.75 401.74 489.793Z" fill="#0267A4"/>
<path d="M430.414 474.253C429.762 475.658 428.321 478.071 427.624 479.985C426.762 482.353 426.593 483.827 426.422 484.788C426.035 486.972 426.152 491.343 424.712 493.148C423.173 495.081 419.351 495.642 418.615 494.44C417.355 492.382 420.771 485.191 423.102 479.784C425.321 474.636 427.628 471.881 428.362 467.296C428.916 463.826 428.321 460.854 428.321 460.854C433.401 464.369 430.775 473.465 430.412 474.251L430.414 474.253Z" fill="#0267A4"/>
<path opacity="0.18" d="M430.414 474.253C429.762 475.658 428.321 478.071 427.624 479.985C426.762 482.353 426.593 483.827 426.422 484.788C426.035 486.972 426.152 491.343 424.712 493.148C423.173 495.081 419.351 495.642 418.615 494.44C417.355 492.382 420.771 485.191 423.102 479.784C425.321 474.636 427.628 471.881 428.362 467.296C428.916 463.826 428.321 460.854 428.321 460.854C433.401 464.369 430.775 473.465 430.412 474.251L430.414 474.253Z" fill="#1F1F39"/>
<path opacity="0.29" d="M452.504 472.688C452.504 472.688 452.491 472.699 452.485 472.703C452.485 472.703 452.485 472.703 452.482 472.706C452.476 472.71 452.469 472.716 452.463 472.721C452.437 472.742 452.409 472.762 452.383 472.783C452.407 472.764 452.43 472.747 452.454 472.727C452.459 472.725 452.461 472.723 452.465 472.719C452.478 472.708 452.493 472.697 452.506 472.686L452.504 472.688Z" fill="#BA470D"/>
<path opacity="0.29" d="M452.455 472.729C452.455 472.729 452.44 472.74 452.434 472.747C452.434 472.747 452.449 472.736 452.455 472.729Z" fill="#BA470D"/>
<path opacity="0.18" d="M420.373 478.076C419.899 478.76 419.366 479.439 418.825 480.1C417.695 481.472 416.515 482.764 415.699 483.842C415.699 483.842 416.541 472.755 417.303 470.954L420.373 478.076Z" fill="#1F1F39"/>
<path d="M452.434 472.744C452.434 472.744 452.449 472.734 452.455 472.727C452.449 472.734 452.44 472.738 452.434 472.744Z" fill="#419F81"/>
<path d="M452.463 472.721C452.476 472.71 452.491 472.699 452.504 472.688C452.498 472.695 452.491 472.699 452.485 472.704C452.485 472.704 452.485 472.704 452.482 472.706C452.476 472.71 452.469 472.717 452.463 472.721C452.437 472.743 452.409 472.762 452.383 472.784C452.407 472.764 452.43 472.747 452.454 472.727C452.459 472.725 452.461 472.723 452.465 472.719L452.463 472.721Z" fill="#419F81"/>
<path d="M452.434 472.744C452.434 472.744 452.449 472.734 452.455 472.727C452.449 472.734 452.44 472.738 452.434 472.744Z" fill="#F7E6CD"/>
<path d="M452.504 472.688C452.504 472.688 452.491 472.699 452.485 472.703C452.485 472.703 452.485 472.703 452.482 472.706C452.476 472.71 452.469 472.716 452.463 472.721C452.437 472.742 452.409 472.762 452.383 472.783C452.407 472.764 452.43 472.747 452.454 472.727C452.459 472.725 452.461 472.723 452.465 472.719C452.478 472.708 452.493 472.697 452.506 472.686L452.504 472.688Z" fill="#F7E6CD"/>
<path d="M442.888 488.718C444.08 489.005 443.351 489.62 444.942 489.425C447.165 489.153 447.639 490.412 448.933 490.819C450.046 491.17 452.955 491.856 453.886 490.493C456.865 486.129 452.486 488.07 451.741 487.566C451.146 487.163 452.128 486.33 451.613 485.358C451.098 484.388 450.215 486.891 448 486.124C446.464 485.592 444.013 486.546 443.32 486.627C442.628 486.707 442.888 488.72 442.888 488.72V488.718Z" fill="#EFAEA6"/>
<path d="M427.787 479.897C429.354 482.001 447.338 485.081 447.983 485.388C448.466 485.62 447.174 489.98 445.637 490.07C444.373 490.146 424.748 488.482 421.973 484.672C419.761 481.635 414.953 465.82 414.953 465.82C414.953 465.82 421.573 460.441 422.406 463.982C422.677 465.127 427.021 478.862 427.789 479.897H427.787Z" fill="#0267A4"/>
<path d="M239.743 386.107C240.568 386.588 251.993 387.841 252.586 387.757C258.067 386.98 267.083 385.536 268.94 385.819C273.39 386.495 275.038 383.683 274.338 382.929C273.072 381.564 272.107 383.094 268.271 383.109C265.957 383.118 255.924 382.971 252.257 383.447C251.558 383.473 241.804 381.135 238.953 380.343C238.953 380.343 238.921 385.629 239.743 386.109V386.107Z" fill="#E2A09A"/>
<path d="M237.276 378.646C240.201 379.841 241.253 380.083 241.759 382.449C242.268 384.815 245.588 387.103 244.92 389.384C244.251 391.668 242.313 393.532 242.171 396.032C242.028 398.532 237.718 408.269 242.829 412.18C245.861 414.501 238.932 428.72 233.131 422.486C227.33 416.252 221.349 414.254 226.293 406.533C231.975 397.658 226.899 389.594 226.75 385.804C226.6 382.014 230.787 377.659 230.787 377.659L237.276 378.648V378.646Z" fill="#0267A4"/>
<path opacity="0.28" d="M236.516 375.84C236.415 375.487 236.321 375.087 236.237 374.634C236.207 374.476 236.176 374.31 236.15 374.139C235.956 374.05 235.75 373.985 235.592 374.009C235.375 374.043 235.005 374.017 234.733 373.851C234.28 373.574 233.759 374.184 234.259 374.749C234.453 374.968 235.534 375.688 236.518 375.842L236.516 375.84Z" fill="#1F1F39"/>
<path d="M236.631 373.325C236.969 376.146 236.962 377.377 237.648 377.966C238.328 378.548 239.426 380.167 238.571 380.427C238.149 380.555 235.313 380.315 234.194 379.981C233.075 379.648 232.73 379.157 232.73 379.157C232.73 379.157 232.873 374.583 233.23 371.336C233.588 368.091 236.631 373.325 236.631 373.325Z" fill="#F5B1B4"/>
<path d="M232.733 379.156C232.733 379.156 233.077 379.648 234.196 379.981C235.315 380.314 238.151 380.555 238.573 380.427C239.426 380.167 238.33 378.548 237.651 377.966C237.374 377.728 237.209 377.386 237.088 376.877C236.947 376.275 236.869 375.437 236.739 374.264C236.707 373.972 236.672 373.658 236.631 373.323C236.631 373.323 233.585 368.089 233.23 371.333C232.873 374.578 232.73 379.152 232.73 379.152L232.733 379.156Z" fill="#F5B1B4"/>
<path opacity="0.25" d="M237.256 377.401C237.042 376.912 236.91 376.301 236.81 375.022C236.083 374.485 234.518 374.695 234.83 375.368C235.286 376.355 235.808 377.091 237.256 377.401Z" fill="#1F1F39"/>
<path d="M239.256 368.428C239.79 370.864 240.951 372.043 240.072 372.188C239.407 372.297 240.414 377.316 238.03 376.461C235.662 375.611 233.751 374.173 233.818 371.556C233.885 368.939 233.857 367.402 233.857 367.402L239.256 368.431V368.428Z" fill="#F5B1B4"/>
<path d="M239.394 368.785C238.474 369.662 234.809 370.238 234.584 374.132C234.482 375.898 234.887 380.141 230.292 381.152C226.675 381.511 226.549 381.076 225.404 380.087C223.926 378.81 222.629 383.052 219.475 382.375C217.678 381.99 213.592 380.622 215.923 377.459C217.044 375.94 218.425 377.821 219.631 376.894C220.722 376.056 221.066 373.366 222.919 372.366C226.272 370.554 226.882 372.366 228.134 371.905C229.385 371.441 227.647 365.259 234.662 364.69C236.483 364.543 237.987 366.19 238.92 366.214C239.526 366.231 240.039 366.809 240.063 367.309C240.1 368.075 239.708 368.489 239.396 368.785H239.394Z" fill="#1F1F39"/>
<path opacity="0.25" d="M260.232 386.653L259.409 386.767L258.16 384.053L258.684 383.232L260.232 386.653Z" fill="#1F1F39"/>
<path opacity="0.28" d="M228.84 388.598C234.896 392.787 240.066 397.61 241.252 400.028C241.854 397.084 242.118 396.932 242.17 396.03C242.213 395.278 242.341 395.012 242.767 394.389C243.271 395.283 237.377 392.8 237.377 392.8L228.84 388.596V388.598Z" fill="#1F1F39"/>
<path opacity="0.25" d="M223.848 417.295C224.573 422.206 226.809 424.601 231.197 425.94C234.931 427.081 262.54 426.311 266.103 426.315C264.095 423.964 246.306 422.808 243.654 421.191L223.85 417.295H223.848Z" fill="#1F1F39"/>
<path d="M274.545 427.687C277.831 429.685 289.847 436.378 291.646 438.207C292.568 439.145 293.603 440.84 294.267 440.662C295.979 440.203 295.215 439.156 297.129 436.688C299.042 434.22 300.454 431.997 300.43 430.406C300.417 429.527 299.479 428.361 298.098 430.172C296.717 431.984 294.527 432.748 293.152 432.612C291.778 432.476 277.35 422.626 277.35 422.626L274.543 427.687H274.545Z" fill="#3B3B4C"/>
<path d="M228.319 412.024C230.027 412.349 236.458 412.855 243.493 413.624C250.528 414.392 263.501 416.08 267.626 417.459C278.239 421.003 291.377 429.774 291.535 430.27C291.379 432.687 287.781 436.413 287.781 436.413C285.339 434.852 275.129 428.46 266.063 425.36C256.433 426.144 230.992 424.934 229.434 423.204C226.615 420.079 228.319 412.024 228.319 412.024Z" fill="#F4AD00"/>
<path opacity="0.06" d="M228.319 412.024C230.027 412.349 236.458 412.855 243.493 413.624C250.528 414.392 263.501 416.08 267.626 417.459C278.239 421.003 291.377 429.774 291.535 430.27C291.379 432.687 287.781 436.413 287.781 436.413C285.339 434.852 275.129 428.46 266.063 425.36C256.433 426.144 230.992 424.934 229.434 423.204C226.615 420.079 228.319 412.024 228.319 412.024Z" fill="#1F1F39"/>
<path d="M263.776 435.266C263.163 439.469 262.267 444.149 261.657 446.792C261.33 448.208 260.531 450.292 260.999 450.89C262.204 452.433 263.09 451.028 266.425 451.909C269.761 452.79 272.482 453.44 274.09 452.73C274.98 452.338 275.761 450.879 273.322 450.258C270.882 449.637 268.614 448.359 268.159 446.905C267.705 445.448 269.988 435.625 269.988 435.625L263.776 435.266Z" fill="#3B3B4C"/>
<path d="M264.765 413.706C265.542 424.023 263.754 433.22 262.008 441.857C265.397 444.58 266.471 443.623 269.575 443.805C269.506 437.625 276.703 415.975 271.798 406.768C268.118 399.861 243.108 411.858 239.043 410.528C236.575 409.721 234.543 410.985 232.294 410.351C230.627 409.881 226.22 408.989 224.778 409.282C222.142 415.498 223.386 420.73 230.62 424.22C237.058 427.324 253.622 422.451 264.763 413.708L264.765 413.706Z" fill="#F4AD00"/>
<path d="M273.824 382.521C272.651 381.551 271.038 381.579 269.787 382.269C268.534 382.962 266.902 384.884 267.811 385.692C268.17 386.01 270.385 385.376 270.385 385.376L273.824 382.521Z" fill="#E2A09A"/>
<path d="M257.556 381.144C253.982 370.881 252.746 352.739 259.913 351.822C265.788 351.07 267.368 364.192 269.55 361.748C271.732 359.305 281.198 327.179 288.005 328.898C294.813 330.617 292.952 335.329 289.397 342.81C286.514 348.875 284.828 352.932 287.098 353.213C289.369 353.495 293.512 352.694 293.688 356.724C293.863 360.755 296.759 359.361 298.047 361.638C299.339 363.924 297.393 365.565 299.052 367.037C300.757 368.548 300.798 367.123 303.242 368.595C305.686 370.067 306.602 373.381 303.76 376.708C300.917 380.035 288.863 399.948 281.88 399.333C274.896 398.718 262.06 394.082 257.556 381.146V381.144Z" fill="white"/>
<g opacity="0.66">
<path d="M272.656 381.018C266.79 387.408 276.046 366.37 277.659 367.307C278.568 367.836 274.39 379.131 272.656 381.018Z" fill="#545466"/>
<path d="M276.58 384.128C269.179 388.65 283.881 370.985 285.174 372.331C285.903 373.089 278.769 382.793 276.58 384.128Z" fill="#545466"/>
<path d="M281.459 387.469C273.511 390.939 290.484 375.444 291.581 376.955C292.2 377.806 283.808 386.445 281.459 387.469Z" fill="#545466"/>
</g>
<path opacity="0.25" d="M261.886 376.061C262.016 380.55 259.277 385.018 259.277 385.018C258.392 383.51 257.938 382.791 257.938 382.791L261.886 376.061Z" fill="#1F1F39"/>
<path d="M236.397 386.832C239.111 388.521 246.605 391.352 247.326 391.322C255.413 384.297 255.599 382.39 257.286 379.407C258.859 377.41 258.952 371.909 261.028 373.883C262.598 375.375 261.706 378.213 260.768 379.847C259.801 381.531 251.887 394.309 249.062 396.012C246.237 397.716 231.195 389.806 231.195 389.806L236.399 386.832H236.397Z" fill="#EFAEA6"/>
<path d="M252.796 269.302C259.914 269.302 274.536 281.885 253.636 283.9C232.737 285.915 201.436 284.989 188.769 285.03C168.094 285.099 162.964 284.255 163.129 275.834C163.224 270.962 165.863 267.804 176.764 266.527C188.102 265.198 182.31 252.628 196.15 253.008C207.939 253.333 209.14 269.787 219.929 265.754C230.715 261.721 228.457 272.711 236.345 274.726C245.015 276.943 245.683 269.299 252.796 269.299V269.302Z" fill="white"/>
<path fill-rule="evenodd" clip-rule="evenodd" d="M361.46 380.429C360.942 382.239 360.681 383.96 363.529 386.445C365.752 388.384 368.136 387.066 370.543 388.339C373.833 390.079 373.422 392.809 377.699 393.153C381.392 393.449 382.236 387.819 387.619 390.04C391.685 391.718 396.284 390.228 396.144 386.328C396.003 382.412 400.096 381.702 397.629 377.881C395.111 373.987 390.994 377.173 389.026 376.26C386.002 374.857 385.624 371.961 381.128 372.171C375.387 372.439 376.01 375.898 370.744 375.684C366.01 375.492 362.347 377.323 361.46 380.429Z" fill="white"/>
<path d="M498.857 335.169C487.74 335.909 477.112 334.94 466.202 332.47C464.529 332.091 462.754 331.585 461.619 330.18C459.901 328.052 460.418 324.469 462.271 322.484C464.124 320.499 466.916 319.904 469.492 320.179C471.141 320.357 472.832 320.844 474.425 320.337C476.414 319.705 477.731 317.707 479.064 315.967C480.397 314.226 482.203 312.505 484.259 312.778C485.798 312.982 487.013 314.257 488.383 315.055C489.753 315.854 491.744 315.939 492.53 314.469C494.212 311.324 491.85 302.7 500.513 302.7C513.016 302.7 510.973 311.38 512.479 313.222C514.761 316.014 518.822 315.4 522.127 314.454C525.433 313.508 529.368 312.612 531.918 315.11C534.128 317.274 534.357 321.244 536.708 323.223C539.21 325.329 542.765 324.205 545.797 323.259C548.83 322.313 552.739 321.967 554.499 324.84C555.975 327.249 554.874 330.749 552.776 332.515C550.679 334.282 547.91 334.712 545.273 334.888C528.147 336.028 512.598 334.256 498.86 335.169H498.857Z" fill="white"/>
<path d="M113.687 11.1895C113.425 11.1895 113.16 11.0703 112.958 10.8318C112.556 10.3549 112.556 9.58172 112.958 9.1048L120.344 0.357689C120.747 -0.11923 121.4 -0.11923 121.802 0.357689C122.205 0.834607 122.205 1.60779 121.802 2.08471L114.417 10.8318C114.215 11.0703 113.953 11.1895 113.687 11.1895Z" fill="#65A7DD"/>
<path d="M121.085 11.1895C120.823 11.1895 120.557 11.0703 120.356 10.8318L112.97 2.08471C112.567 1.60779 112.567 0.834607 112.97 0.357689C113.373 -0.11923 114.026 -0.11923 114.428 0.357689L121.814 9.1048C122.217 9.58172 122.217 10.3549 121.814 10.8318C121.613 11.0703 121.35 11.1895 121.085 11.1895Z" fill="#65A7DD"/>
<path d="M215.293 177.97C215.031 177.97 214.765 177.851 214.564 177.612C214.161 177.135 214.161 176.362 214.564 175.885L221.95 167.138C222.352 166.661 223.005 166.661 223.408 167.138C223.811 167.615 223.811 168.388 223.408 168.865L216.022 177.612C215.821 177.851 215.558 177.97 215.293 177.97Z" fill="#65A7DD"/>
<path d="M222.679 177.97C222.416 177.97 222.151 177.851 221.95 177.612L214.564 168.865C214.161 168.388 214.161 167.615 214.564 167.138C214.966 166.661 215.619 166.661 216.022 167.138L223.408 175.885C223.811 176.362 223.811 177.135 223.408 177.612C223.207 177.851 222.944 177.97 222.679 177.97Z" fill="#65A7DD"/>
<path d="M178.853 46.6884C176.089 46.6884 173.844 44.0256 173.844 40.7558C173.844 37.486 176.092 34.8232 178.853 34.8232C181.614 34.8232 183.863 37.486 183.863 40.7558C183.863 44.0256 181.614 46.6884 178.853 46.6884ZM178.853 37.262C177.227 37.262 175.903 38.8301 175.903 40.7558C175.903 42.6816 177.227 44.2496 178.853 44.2496C180.479 44.2496 181.803 42.6816 181.803 40.7558C181.803 38.8301 180.479 37.262 178.853 37.262Z" fill="#65A7DD"/>
<path d="M297.609 25.7598C297.347 25.7598 297.082 25.6406 296.88 25.4021C296.477 24.9252 296.477 24.152 296.88 23.6751L304.266 14.928C304.669 14.4511 305.322 14.4511 305.724 14.928C306.127 15.4049 306.127 16.1781 305.724 16.655L298.338 25.4021C298.137 25.6406 297.875 25.7598 297.609 25.7598Z" fill="#65A7DD"/>
<path d="M304.995 25.7598C304.733 25.7598 304.467 25.6406 304.266 25.4021L296.88 16.655C296.477 16.1781 296.477 15.4049 296.88 14.928C297.283 14.4511 297.936 14.4511 298.338 14.928L305.724 23.6751C306.127 24.152 306.127 24.9252 305.724 25.4021C305.523 25.6406 305.261 25.7598 304.995 25.7598Z" fill="#65A7DD"/>
<path d="M55.4765 219.381C55.2141 219.381 54.9487 219.262 54.7473 219.023C54.3446 218.546 54.3446 217.773 54.7473 217.296L62.1333 208.549C62.536 208.072 63.1888 208.072 63.5915 208.549C63.9943 209.026 63.9943 209.799 63.5915 210.276L56.2056 219.023C56.0043 219.262 55.7419 219.381 55.4765 219.381Z" fill="#65A7DD"/>
<path d="M62.8741 219.381C62.6118 219.381 62.3463 219.262 62.145 219.023L54.7591 210.276C54.3564 209.799 54.3564 209.026 54.7591 208.549C55.1618 208.072 55.8146 208.072 56.2173 208.549L63.6033 217.296C64.006 217.773 64.006 218.546 63.6033 219.023C63.4019 219.262 63.1396 219.381 62.8741 219.381Z" fill="#65A7DD"/>
<path d="M315.033 192.061C313.102 192.061 311.527 190.2 311.527 187.909C311.527 185.619 313.098 183.758 315.033 183.758C316.967 183.758 318.538 185.619 318.538 187.909C318.538 190.2 316.967 192.061 315.033 192.061ZM315.033 185.467C313.895 185.467 312.97 186.562 312.97 187.909C312.97 189.257 313.895 190.352 315.033 190.352C316.171 190.352 317.095 189.257 317.095 187.909C317.095 186.562 316.171 185.467 315.033 185.467Z" fill="#65A7DD"/>
<path d="M125.037 197.141C122.273 197.141 120.027 194.478 120.027 191.208C120.027 187.938 122.276 185.275 125.037 185.275C127.798 185.275 130.046 187.938 130.046 191.208C130.046 194.478 127.798 197.141 125.037 197.141ZM125.037 187.714C123.411 187.714 122.087 189.282 122.087 191.208C122.087 193.134 123.411 194.702 125.037 194.702C126.663 194.702 127.987 193.134 127.987 191.208C127.987 189.282 126.663 187.714 125.037 187.714Z" fill="#65A7DD"/>
<path d="M281.01 162.43H262.059C261.488 162.43 261.027 161.885 261.027 161.209C261.027 160.533 261.488 159.988 262.059 159.988H281.01C281.58 159.988 282.041 160.533 282.041 161.209C282.041 161.885 281.58 162.43 281.01 162.43Z" fill="#65A7DD"/>
<path d="M215.311 41.9756H193.687C193.117 41.9756 192.656 41.43 192.656 40.7544C192.656 40.0788 193.117 39.5332 193.687 39.5332H215.311C215.882 39.5332 216.343 40.0788 216.343 40.7544C216.343 41.43 215.882 41.9756 215.311 41.9756Z" fill="#65A7DD"/>
<path d="M155.155 192.426H137.516C136.945 192.426 136.484 191.88 136.484 191.205C136.484 190.529 136.945 189.983 137.516 189.983H155.155C155.726 189.983 156.186 190.529 156.186 191.205C156.186 191.88 155.726 192.426 155.155 192.426Z" fill="#65A7DD"/>
<path d="M28.9155 19.9433C26.9844 19.9433 25.4102 18.0826 25.4102 15.792C25.4102 13.5013 26.9813 11.6406 28.9155 11.6406C30.8497 11.6406 32.4208 13.5013 32.4208 15.792C32.4208 18.0826 30.8497 19.9433 28.9155 19.9433ZM28.9155 13.3496C27.7776 13.3496 26.8532 14.4443 26.8532 15.792C26.8532 17.1396 27.7776 18.2344 28.9155 18.2344C30.0534 18.2344 30.9778 17.1396 30.9778 15.792C30.9778 14.4443 30.0534 13.3496 28.9155 13.3496Z" fill="#65A7DD"/>
<path d="M10.4727 152.833C10.4727 158.097 14.0756 162.361 18.5176 162.361H112.149C116.591 162.361 120.194 158.094 120.194 152.833V55.6465H10.4727V152.833Z" fill="#65A7DD"/>
<path d="M112.154 163.659H18.5229C13.4831 163.659 9.38281 158.803 9.38281 152.834V55.6475C9.38281 54.9321 9.87399 54.354 10.475 54.354H120.199C120.803 54.354 121.292 54.9321 121.292 55.6475V152.834C121.292 158.803 117.191 163.659 112.151 163.659H112.154ZM11.5702 56.9445V152.834C11.5702 157.376 14.6881 161.068 18.5229 161.068H112.154C115.989 161.068 119.107 157.376 119.107 152.834V56.9445H11.5702Z" fill="#272425"/>
<path d="M112.157 40.5425H18.5254C14.0834 40.5425 10.4805 44.8094 10.4805 50.07V55.6485H120.205V50.07C120.205 44.8094 116.602 40.5425 112.16 40.5425H112.157Z" fill="#65A7DD"/>
<path d="M120.199 56.9448H10.475C9.87094 56.9448 9.38281 56.3631 9.38281 55.6477V50.0692C9.38281 44.1005 13.4831 39.2446 18.5229 39.2446H112.154C117.194 39.2446 121.295 44.1005 121.295 50.0692V55.6477C121.295 56.3631 120.803 56.9448 120.202 56.9448H120.199ZM11.5702 54.3543H119.107V50.0728C119.107 45.5313 115.989 41.8388 112.154 41.8388H18.5229C14.6881 41.8388 11.5702 45.5313 11.5702 50.0728V54.3543Z" fill="#272425"/>
<g opacity="0.19">
<path d="M109.847 65.9736H21.4752C20.8417 65.9736 20.3281 66.5818 20.3281 67.3321V98.7798C20.3281 99.5301 20.8417 100.138 21.4752 100.138H109.847C110.481 100.138 110.994 99.5301 110.994 98.7798V67.3321C110.994 66.5818 110.481 65.9736 109.847 65.9736Z" fill="#2F2F2F"/>
</g>
<g opacity="0.19">
<path d="M110.302 104.258H21.0207C20.6382 104.258 20.3281 104.625 20.3281 105.078V107.755C20.3281 108.208 20.6382 108.575 21.0207 108.575H110.302C110.684 108.575 110.994 108.208 110.994 107.755V105.078C110.994 104.625 110.684 104.258 110.302 104.258Z" fill="#2F2F2F"/>
</g>
<g opacity="0.19">
<path d="M109.978 112.933H20.6964C20.314 112.933 20.0039 113.3 20.0039 113.753V116.43C20.0039 116.883 20.314 117.25 20.6964 117.25H109.978C110.36 117.25 110.67 116.883 110.67 116.43V113.753C110.67 113.3 110.36 112.933 109.978 112.933Z" fill="#2F2F2F"/>
</g>
<g opacity="0.19">
<path d="M109.978 121.307H20.6964C20.314 121.307 20.0039 121.674 20.0039 122.127V124.805C20.0039 125.257 20.314 125.625 20.6964 125.625H109.978C110.36 125.625 110.67 125.257 110.67 124.805V122.127C110.67 121.674 110.36 121.307 109.978 121.307Z" fill="#2F2F2F"/>
</g>
<g opacity="0.19">
<path d="M109.978 130.147H20.6964C20.314 130.147 20.0039 130.514 20.0039 130.967V133.644C20.0039 134.097 20.314 134.465 20.6964 134.465H109.978C110.36 134.465 110.67 134.097 110.67 133.644V130.967C110.67 130.514 110.36 130.147 109.978 130.147Z" fill="#2F2F2F"/>
</g>
<path d="M0.949219 161.326C0.949219 166.586 4.55219 170.853 8.99413 170.853H102.626C107.068 170.853 110.671 166.586 110.671 161.326V69.4829H0.949219V161.326Z" fill="white"/>
<path d="M102.625 171.977H8.9937C4.03618 171.977 0 167.2 0 161.326V69.4828C0 68.865 0.424058 68.3628 0.945741 68.3628H110.67C111.192 68.3628 111.616 68.865 111.616 69.4828V161.326C111.616 167.197 107.583 171.977 102.622 171.977H102.625ZM1.89453 70.6029V161.326C1.89453 165.961 5.07955 169.733 8.9937 169.733H102.625C106.539 169.733 109.724 165.961 109.724 161.326V70.6029H1.89453Z" fill="#2F2F2F"/>
<path d="M102.626 54.377H8.99412C4.55219 54.377 0.949219 58.6439 0.949219 63.9045V69.483H110.674V63.9045C110.674 58.6439 107.071 54.377 102.629 54.377H102.626Z" fill="#F9F9F9"/>
<path d="M110.67 70.6031H0.945741C0.424058 70.6031 0 70.1009 0 69.4831V63.9046C0 58.0334 4.03313 53.2534 8.9937 53.2534H102.625C107.583 53.2534 111.619 58.0298 111.619 63.9046V69.4831C111.619 70.1009 111.195 70.6031 110.673 70.6031H110.67ZM1.89453 68.3594H109.724V63.9046C109.724 59.2691 106.539 55.4971 102.625 55.4971H8.99065C5.0765 55.4971 1.89148 59.2691 1.89148 63.9046V68.3594H1.89453Z" fill="#2F2F2F"/>
<path d="M9.52559 65.2303C10.86 65.2303 11.9418 63.9492 11.9418 62.3688C11.9418 60.7885 10.86 59.5073 9.52559 59.5073C8.19115 59.5073 7.10938 60.7885 7.10938 62.3688C7.10938 63.9492 8.19115 65.2303 9.52559 65.2303Z" fill="#DF6868"/>
<path d="M9.52663 65.902C7.88226 65.902 6.54297 64.3159 6.54297 62.3685C6.54297 60.4211 7.88226 58.835 9.52663 58.835C11.171 58.835 12.5103 60.4211 12.5103 62.3685C12.5103 64.3159 11.171 65.902 9.52663 65.902ZM9.52663 60.1826C8.50767 60.1826 7.68091 61.1654 7.68091 62.3685C7.68091 63.5716 8.51072 64.5544 9.52663 64.5544C10.5425 64.5544 11.3724 63.5716 11.3724 62.3685C11.3724 61.1654 10.5425 60.1826 9.52663 60.1826Z" fill="#272425"/>
<path d="M25.3303 65.2313C26.6647 65.2313 27.7465 63.9502 27.7465 62.3698C27.7465 60.7894 26.6647 59.5083 25.3303 59.5083C23.9958 59.5083 22.9141 60.7894 22.9141 62.3698C22.9141 63.9502 23.9958 65.2313 25.3303 65.2313Z" fill="#C9DB94"/>
<path d="M25.3235 65.903C23.6791 65.903 22.3398 64.3169 22.3398 62.3695C22.3398 60.4221 23.6791 58.8359 25.3235 58.8359C26.9679 58.8359 28.3072 60.4221 28.3072 62.3695C28.3072 64.3169 26.9679 65.903 25.3235 65.903ZM25.3235 60.1836C24.3045 60.1836 23.4778 61.1663 23.4778 62.3695C23.4778 63.5726 24.3076 64.5553 25.3235 64.5553C26.3394 64.5553 27.1692 63.5726 27.1692 62.3695C27.1692 61.1663 26.3394 60.1836 25.3235 60.1836Z" fill="#272425"/>
<path d="M17.4279 65.2313C18.7624 65.2313 19.8442 63.9502 19.8442 62.3698C19.8442 60.7894 18.7624 59.5083 17.4279 59.5083C16.0935 59.5083 15.0117 60.7894 15.0117 62.3698C15.0117 63.9502 16.0935 65.2313 17.4279 65.2313Z" fill="#EBC465"/>
<path d="M17.429 65.903C15.7846 65.903 14.4453 64.3169 14.4453 62.3695C14.4453 60.4221 15.7846 58.8359 17.429 58.8359C19.0733 58.8359 20.4126 60.4221 20.4126 62.3695C20.4126 64.3169 19.0733 65.903 17.429 65.903ZM17.429 60.1836C16.41 60.1836 15.5833 61.1663 15.5833 62.3695C15.5833 63.5726 16.4131 64.5553 17.429 64.5553C18.4449 64.5553 19.2747 63.5726 19.2747 62.3695C19.2747 61.1663 18.4449 60.1836 17.429 60.1836Z" fill="#272425"/>
<path d="M330.229 106.425H268.646C266.361 106.425 264.509 104.163 264.509 101.374C264.509 98.5846 266.361 96.3228 268.646 96.3228H312.407C316.144 96.3228 319.176 92.6231 319.176 88.0599C319.176 83.4966 316.147 79.7969 312.407 79.7969H18.345C14.8091 79.7969 11.9414 83.2979 11.9414 87.6154V140.217C11.9414 144.535 14.8091 148.036 18.345 148.036H199.696C200.312 148.26 200.965 147.996 201.642 147.996H315.006C318.743 147.996 321.776 144.683 321.776 140.12C321.776 135.557 318.746 131.857 315.006 131.857H278.345C277.451 130.932 276.883 129.548 276.883 128.005C276.883 125.216 278.735 122.954 281.02 122.954H330.232C333.97 122.954 337.002 119.255 337.002 114.691C337.002 110.128 333.973 106.428 330.232 106.428L330.229 106.425Z" fill="#F4AD00"/>
<path d="M77.1831 95.8824C77.9214 94.8346 81.8508 93.2629 84.4531 92.45C93.8861 89.5993 95.3108 95.8246 95.1125 98.8487C95.1125 101.41 94.3742 104.026 92.559 106.353C92.2143 106.992 91.8726 107.632 91.6743 107.632C91.6743 107.863 92.2143 108.098 92.7543 108.098C95.9973 108.972 98.8955 111.588 99.2402 115.136C100.174 124.62 97.0772 127.121 94.9173 129.274C92.3638 131.601 87.3025 132.88 85.1426 131.369C82.6379 129.158 82.4396 127.124 82.0979 123.049C81.5579 115.776 81.1644 106.526 81.1644 101.407C81.1644 98.6138 81.1644 98.6716 80.2796 98.6716C78.6597 98.9029 77.235 98.0321 77.0367 96.7531C77.0367 96.3448 76.9879 96.1136 77.1831 95.8824ZM87.5008 103.387C88.7791 101.699 89.8591 98.4404 89.6608 97.1614C89.4655 95.998 88.0408 96.287 87.5008 96.5219C86.7809 96.676 86.486 96.9675 86.6161 97.3962C86.6161 97.8045 86.7626 99.4918 86.7626 101.002C86.9578 104.203 86.9578 104.261 87.5008 103.387ZM93.4926 114.092C93.2973 113.684 92.8061 112.697 92.559 112.578C91.1343 112.054 89.3161 112.17 88.5808 112.578C87.7286 112.85 87.3686 113.703 87.5008 115.136C87.6961 117.929 88.4344 126.481 88.4344 126.481C92.4126 125.318 92.9526 122.174 93.4956 120.487C94.0356 118.569 94.0356 115.599 93.4956 114.088L93.4926 114.092Z" fill="#31364C"/>
<path d="M101.451 102.921C101.321 96.6368 101.452 93.2623 101.845 92.7974C103.123 91.6918 104.889 92.5662 105.283 92.7974C105.676 93.2635 105.969 93.4369 107.15 93.0286C109.655 92.2157 112.849 92.7974 114.075 93.4947C116.287 94.9507 117.611 96.9271 117.367 100.302C116.827 108.041 112.013 111.007 111.619 111.473C110.588 112.463 110.637 112.405 111.03 113.392C111.226 113.858 112.309 115.776 113.044 117.698C114.469 121.362 116.385 124.505 116.973 125.203C118.203 126.89 118.349 127.703 118.151 128.404C115.89 130.904 113.877 129.336 112.257 127.414C110.832 125.726 110.439 124.971 109.407 122.818C108.819 121.131 108.178 119.675 107.983 119.443C107.787 119.212 107.787 120.607 107.787 125.203C107.983 129.567 107.787 131.486 107.787 131.952C107.199 133.408 105.283 133.697 103.464 132.999C101.845 132.009 101.845 132.244 101.646 121.828C101.646 116.477 101.451 108.041 101.451 102.921ZM109.212 105.363C111.424 102.744 112.406 99.7777 111.814 97.6244C110.93 96.2876 109.014 96.9271 107.787 97.3931C107.1 97.7039 106.821 98.1892 106.952 98.8492C106.952 99.5465 107.394 107.286 107.589 107.286C107.589 107.286 108.376 106.353 109.209 105.367L109.212 105.363Z" fill="#31364C"/>
<path d="M125.184 93.0891C125.184 92.8579 125.529 92.3918 125.724 92.157C126.117 91.6921 126.772 91.5367 127.689 91.6909C129.654 91.6909 131.127 92.6809 132.799 94.4837C138.644 100.767 139.776 109.785 139.676 114.438C139.432 125.202 135.353 129.74 132.207 131.6C128.522 133.403 125.38 132.298 123.61 131.134C117.667 127.933 118.256 111.703 118.894 108.387C120.858 98.2051 123.021 96.1096 124.394 94.4801C124.788 94.0141 125.181 93.3167 125.181 93.0855L125.184 93.0891ZM131.03 101.699C130.636 100.304 129.849 98.9061 129.459 98.44C129.065 97.7427 128.87 97.5078 128.671 97.5078C122.53 103.267 123.415 119.732 125.724 124.909C126.264 126.13 127.1 127.409 127.296 127.409C128.278 127.64 130.441 125.371 131.618 123.279C134.566 116.996 134.37 109.142 131.03 101.695V101.699Z" fill="#31364C"/>
<path d="M163.888 97.454C164.233 92.5077 164.428 92.1031 165.167 91.6948C165.902 91.4636 167.72 91.4636 168.458 91.8682C169.538 92.5077 170.078 93.3821 170.078 94.8923C170.078 98.9642 167.375 120.957 165.902 129.335C165.115 132.941 161.677 131.254 160.792 130.21C159.172 128.291 156.814 121.542 155.535 116.187C155.405 115.335 155.045 117.139 154.455 121.6C152.835 132.594 152.982 132.305 151.164 132.536C149.69 132.768 147.921 131.897 147.381 130.383C146.645 128.464 144.287 118.341 143.009 111.476C141.731 104.611 140.797 96.175 140.995 94.6611C141.291 92.5077 144.141 93.6133 145.022 94.4877C145.758 95.1272 145.956 95.9437 146.841 101.761C147.576 106.067 148.265 110.197 149.001 113.629C149.196 115.143 149.345 115.548 149.541 114.908C149.541 114.5 150.425 106.53 151.161 100.713C151.356 98.7944 151.554 96.8145 151.554 96.8145C154.699 94.0216 156.466 96.8145 156.811 97.454C157.647 99.3147 161.527 117.062 161.527 117.062C161.722 116.831 163.345 103.914 163.885 97.454H163.888Z" fill="#31364C"/>
<path d="M177.643 96.114C180.001 93.3212 181.328 92.389 183.488 91.9265C183.882 91.6953 184.864 91.6953 185.648 91.6953C188.744 91.9265 190.904 93.4982 191.493 96.5259C192.082 98.3866 192.033 100.251 191.64 101.646C191.344 104.265 187.366 103.741 186.578 101.877C186.186 101.566 186.055 100.635 186.185 99.0839C186.38 97.2232 186.38 96.7571 185.99 96.7571C185.599 96.7571 184.074 98.3866 182.698 100.016C179.406 104.612 178.424 107.636 179.604 109.265C179.8 109.731 181.127 110.602 182.896 111.766C187.564 114.558 189.135 116.13 190.511 119.154C192.622 128.404 187.564 130.907 184.666 132.071C182.503 132.768 180.587 132.537 178.82 131.605C176.215 130.326 174.693 126.312 174.693 125.148C174.693 123.288 175.48 122.648 177.444 122.879C179.409 123.11 180.538 124.216 180.538 125.846C180.733 127.475 183.29 126.312 184.467 123.985C185.254 122.355 185.254 121.019 184.467 119.389C183.68 118.226 182.896 117.586 179.016 115.259C174.546 112.698 173.17 110.837 172.777 107.405C172.383 104.381 174.546 99.55 177.64 96.1176L177.643 96.114Z" fill="#31364C"/>
<path d="M196.356 94.4839C197.436 93.8444 201.662 92.7967 206.034 91.9259C209.67 91.5177 210.604 91.4599 211.879 92.5654C213.352 93.9601 212.419 95.7088 212.025 95.7666C206.964 96.4061 200.924 97.5117 200.924 97.5117C200.728 97.5117 200.728 104.669 200.53 106.414C200.53 109.034 200.53 109.438 200.725 109.438C200.92 109.669 204.902 108.333 205.442 108.333C207.654 108.333 209.127 110.078 208.587 111.592C208.242 112.466 204.755 113.745 201.268 114.616C200.335 114.847 200.335 114.789 200.335 118.048C200.53 121.715 200.728 123.46 201.268 124.971C201.808 126.716 201.662 126.716 204.56 123.923C206.034 122.644 206.967 122.178 208.587 122.817C210.207 123.457 210.747 124.736 210.012 126.484C209.472 127.763 207.458 129.975 206.18 130.614C195.472 136.431 194.489 123.692 194.34 120.664C193.946 113.506 195.42 97.9741 195.618 97.0998C195.813 96.8685 195.813 96.4603 195.618 96.2254C195.423 95.8171 195.813 94.8886 196.356 94.4803V94.4839Z" fill="#31364C"/>
<path d="M215.127 102.921C214.997 96.6368 215.128 93.2623 215.52 92.7974C216.799 91.6918 218.565 92.5662 218.959 92.7974C219.352 93.2635 219.645 93.4369 220.826 93.0286C223.33 92.2157 226.524 92.7974 227.751 93.4947C229.963 94.9507 231.287 96.9271 231.043 100.302C230.503 108.041 225.689 111.007 225.295 111.473C224.264 112.463 224.313 112.405 224.706 113.392C224.901 113.858 225.984 115.776 226.72 117.698C228.144 121.362 230.06 124.505 230.649 125.203C231.879 126.89 232.025 127.703 231.827 128.404C229.566 130.904 227.553 129.336 225.933 127.414C224.508 125.726 224.114 124.971 223.083 122.818C222.494 121.131 221.854 119.675 221.658 119.443C221.463 119.212 221.463 120.607 221.463 125.203C221.658 129.567 221.463 131.486 221.463 131.952C220.874 133.408 218.959 133.697 217.14 132.999C215.52 132.009 215.52 132.244 215.322 121.828C215.322 116.477 215.127 108.041 215.127 102.921ZM222.888 105.363C225.1 102.744 226.082 99.7777 225.49 97.6244C224.606 96.2876 222.69 96.9271 221.463 97.3931C220.776 97.7039 220.497 98.1892 220.627 98.8492C220.627 99.5465 221.07 107.286 221.265 107.286C221.265 107.286 222.052 106.353 222.885 105.367L222.888 105.363Z" fill="#31364C"/>
<path d="M35.381 184.856L27.7266 135.903L64.0339 161.805L51.1291 165.689L60.5346 181.749L52.4409 188.223L43.0903 172.565L35.381 184.856Z" fill="#65A7DD"/>
<path d="M52.4378 189.307C52.151 189.307 51.8673 189.148 51.6903 188.848L43.0658 174.41L36.11 185.502C35.8934 185.849 35.5212 186.008 35.1704 185.911C34.8165 185.813 34.545 185.477 34.4778 185.051L26.8234 136.094C26.7594 135.675 26.9058 135.249 27.2017 135.007C27.4977 134.765 27.8882 134.75 28.1932 134.971L64.5006 160.873C64.8179 161.097 64.9887 161.526 64.9338 161.96C64.8789 162.394 64.6104 162.744 64.2535 162.852L52.6269 166.353L61.2789 181.131C61.4193 181.369 61.4711 181.662 61.4254 181.947C61.3796 182.233 61.2423 182.482 61.0379 182.645L52.9442 189.119C52.7886 189.246 52.6086 189.303 52.4317 189.303L52.4378 189.307ZM43.0841 171.48H43.0932C43.3861 171.484 43.6607 171.654 43.8285 171.939L52.6635 186.731L59.2471 181.463L50.3694 166.306C50.1985 166.014 50.1589 165.642 50.2656 165.309C50.3694 164.977 50.6073 164.728 50.8971 164.637L61.6786 161.393L28.9895 138.071L35.8904 182.211L42.3458 171.914C42.5197 171.639 42.7912 171.477 43.081 171.477L43.0841 171.48Z" fill="#272425"/>
</svg>
