<svg width="120" height="64" viewBox="0 0 120 64" fill="none" xmlns="http://www.w3.org/2000/svg">
<path d="M42.4292 31.1148C41.9579 29.9499 41.5974 28.7318 41.3581 27.494C41.1215 26.2685 41.0013 25.0134 41.0013 23.7632C41.0013 22.5131 41.1215 21.2577 41.3581 20.0322C41.5974 18.7947 41.9579 17.5762 42.4292 16.4117C43.4107 13.9866 44.8522 11.8136 46.7134 9.95239C47.3554 9.31036 48.0347 8.71825 48.7483 8.17773H14.4157C11.5111 8.17773 9.06812 10.1914 8.40944 12.8963C8.29495 13.3656 8.23438 13.8555 8.23438 14.3594V33.1598C8.23438 36.568 11.0072 39.3408 14.4157 39.3408H48.7383C48.0281 38.8023 47.3524 38.2128 46.7134 37.5741C44.8522 35.7126 43.4107 33.5395 42.4292 31.1148ZM39.1385 15.6608L36.3537 25.2517L34.2335 32.5523L33.9759 33.4403H29.2863L29.0457 32.5204L28.9961 32.33C28.7588 31.4224 28.4542 30.2731 28.1321 29.0563L28.1294 29.046C28.0528 28.7571 27.9746 28.4615 27.8951 28.1613C27.5862 26.9944 27.26 25.7589 26.9502 24.574C26.9042 24.7428 26.8576 24.9122 26.811 25.0826C26.3311 26.8306 25.8212 28.6442 25.3875 30.1886L25.3865 30.1919L25.3839 30.2022C25.1639 30.9844 24.9565 31.7229 24.7808 32.3533L24.7288 32.5394L24.4779 33.4403H19.7963L19.5523 32.5267L19.1473 31.0113L16.031 19.3499L15.7081 18.1411L15.0385 15.6355L14.6244 14.0858H20.1331L20.3558 15.0367L20.4017 15.2331C20.8813 17.28 21.4079 19.4321 21.9171 21.5133L21.9178 21.517C22.0659 22.1217 22.2093 22.7078 22.3464 23.2707C22.4157 23.018 22.4859 22.7624 22.5571 22.5041C22.633 22.2289 22.7096 21.951 22.7868 21.6711C23.1818 20.2362 23.5856 18.7711 23.9424 17.4454C24.1607 16.633 24.3617 15.8731 24.5321 15.2048L24.5811 15.0131L24.8174 14.0858H29.2976L29.5426 14.9981L29.5932 15.1865C30.0961 17.0597 30.9225 20.1354 31.6601 22.9664C31.6824 23.0526 31.7047 23.1385 31.727 23.2244C32.1357 21.718 32.571 20.158 32.9628 18.7555C33.1781 17.9846 33.3775 17.2707 33.5539 16.6327C33.703 16.0938 33.8355 15.6089 33.9473 15.1892L33.9979 15.0001L34.2415 14.0858H39.5958L39.1385 15.6608Z" fill="#F4AD00"/>
<path d="M112.533 12.6557C112.256 11.6908 111.75 10.8217 111.078 10.1118C109.95 8.92128 108.356 8.17773 106.591 8.17773H72.3047C73.0186 8.71825 73.6976 9.31036 74.3396 9.95239C76.2008 11.8136 77.6423 13.9866 78.6238 16.4117C79.0954 17.5762 79.4559 18.7947 79.6949 20.0322C79.9315 21.2577 80.0517 22.5131 80.0517 23.7632C80.0517 25.0134 79.9315 26.2685 79.6949 27.494C79.4559 28.7318 79.0954 29.9499 78.6238 31.1148C78.4121 31.6377 78.1792 32.1486 77.9245 32.6475C77.7881 32.9161 77.645 33.1811 77.4962 33.4427L80.4131 36.3596L83.3943 39.3408H106.591C109.844 39.3408 112.519 36.8142 112.755 33.6204C112.766 33.4683 112.772 33.3145 112.772 33.1598V14.3594C112.772 13.7686 112.689 13.1972 112.533 12.6557ZM87.0095 14.0858L87.2322 15.0367L87.2781 15.2331C87.6759 16.9305 88.1059 18.7005 88.5316 20.4423C88.6191 20.8007 88.7066 21.1578 88.7935 21.513C88.9416 22.1191 89.0854 22.7068 89.2229 23.2707C89.2608 23.1332 89.2987 22.9947 89.337 22.8553C89.3374 22.8549 89.3374 22.8546 89.3374 22.8543C89.4442 22.4655 89.553 22.0708 89.6629 21.6724C90.3006 19.3576 90.9599 16.9638 91.4086 15.2045L91.4575 15.0131L91.6941 14.0858H96.174L96.419 14.9981L96.4696 15.1865L96.4706 15.1898C96.8054 16.436 97.283 18.2146 97.7823 20.0991C98.0306 21.036 98.2842 21.9989 98.5282 22.9355C98.5535 23.032 98.5784 23.1285 98.6034 23.2244C99.0121 21.7177 99.4478 20.1577 99.8395 18.7551L99.8452 18.7342C100.24 17.3203 100.581 16.0991 100.824 15.1892L100.874 15.0001L101.118 14.0858H106.472L106.015 15.6608L101.11 32.5523L100.852 33.4403H96.1627L95.9221 32.5204L95.8725 32.33C95.6319 31.4101 95.314 30.2089 95.0061 29.0473C94.632 27.6341 94.2163 26.0644 93.8266 24.574C93.307 26.4758 92.7396 28.4958 92.2633 30.1912C92.0423 30.9774 91.8336 31.7203 91.6572 32.3533L91.6053 32.5397L91.3543 33.4403H86.673L86.4287 32.5267L84.6378 25.8245L81.9152 15.6355L81.5012 14.0858H87.0095Z" fill="#F4AD00"/>
<path d="M82.8852 40.5727L76.835 34.5225C76.7725 34.617 76.7092 34.7112 76.645 34.8044C75.969 35.7902 75.1995 36.7155 74.3408 37.5745C73.4005 38.5148 72.3808 39.3479 71.2891 40.0684L88.5491 57.3284C89.2893 58.0693 90.2741 58.477 91.3222 58.477C92.3703 58.477 93.3551 58.0693 94.095 57.3288C95.6241 55.7994 95.6241 53.3115 94.095 51.7828L82.8849 40.5727H82.8852Z" fill="#F4AD00"/>
<path d="M75.7528 33.9163C75.8157 33.8218 75.8783 33.7269 75.9395 33.6311C75.9914 33.5499 76.0427 33.4683 76.0933 33.3864C76.1535 33.2886 76.2131 33.1907 76.2713 33.0922C76.3802 32.9088 76.4853 32.7238 76.5869 32.5371C79.9265 26.4173 79.5144 18.7794 75.3517 13.0338C74.7909 12.2599 74.1625 11.5204 73.4656 10.8234C72.5007 9.85889 71.4539 9.02482 70.3476 8.32088C67.3631 6.42207 63.9439 5.47217 60.5254 5.47217C57.477 5.47217 54.4296 6.2267 51.6894 7.73609C51.6894 7.73609 51.6894 7.73609 51.6887 7.73609C51.3559 7.91948 51.0274 8.11386 50.7042 8.31955C49.5975 9.02382 48.5504 9.85789 47.5856 10.8231C46.8886 11.5201 46.2602 12.2596 45.6994 13.0338C41.0794 19.4095 41.0794 28.1167 45.6994 34.4928C46.2599 35.2666 46.8886 36.0065 47.5856 36.7031C48.5494 37.6673 49.5952 38.5007 50.7005 39.2043C53.6857 41.1041 57.1055 42.0547 60.5254 42.0547C63.2989 42.0547 66.072 41.4296 68.6139 40.1799C68.6142 40.1799 68.6142 40.1795 68.6145 40.1795C68.6149 40.1795 68.6149 40.1792 68.6152 40.1792C68.8452 40.066 69.0735 39.9479 69.2995 39.8244C69.4859 39.7229 69.6709 39.6177 69.8547 39.5089C70.0357 39.4017 70.2155 39.2912 70.3935 39.177C71.4829 38.4794 72.514 37.6547 73.4656 36.7031C74.3336 35.8351 75.0958 34.9005 75.7528 33.916V33.9163ZM72.5756 15.6611L67.671 32.5527L67.5674 32.9085L67.4862 33.1881L67.413 33.4407H62.7234L62.537 32.7281L62.4828 32.5207L62.4332 32.3307C62.1972 31.4274 61.8947 30.2851 61.5745 29.0756L61.5668 29.0473L61.5655 29.042C61.1917 27.6308 60.7767 26.0628 60.3873 24.5744C60.2791 24.9695 60.1689 25.3698 60.0581 25.7716C59.6357 27.3013 59.2017 28.8476 58.8243 30.1903L58.8236 30.1923L58.821 30.2022C58.7664 30.3959 58.7128 30.5873 58.6599 30.7747C58.5001 31.3438 58.35 31.8794 58.2179 32.3537L58.1659 32.5397L57.915 33.4407H53.2337L52.9894 32.5271L50.0036 21.3542L48.7295 16.5864L48.4755 15.6359L48.4067 15.3779L48.0615 14.0862H53.5702L53.7929 15.0371L53.8388 15.2335C54.3181 17.279 54.8446 19.4308 55.3535 21.5117L55.3542 21.5137L55.3549 21.5163C55.3895 21.6574 55.4237 21.7979 55.4577 21.937C55.5695 22.394 55.6784 22.8393 55.7835 23.271C55.9267 22.7495 56.0741 22.2143 56.2235 21.6728L56.2242 21.6704C56.8616 19.3562 57.5206 16.9635 57.9692 15.2052L58.0182 15.0135L58.135 14.5555L58.2545 14.0862H62.7347L62.9797 14.9985L63.0303 15.1869L63.0323 15.1935C63.4503 16.7502 64.0917 19.1382 64.7194 21.5253C64.8695 22.0958 65.019 22.6659 65.1641 23.2247C65.5728 21.718 66.0085 20.1574 66.4002 18.7548L66.4035 18.7435C66.5077 18.3714 66.6079 18.0123 66.7034 17.6688C66.9723 16.7042 67.2053 15.8618 67.3847 15.1895L67.4336 15.0055L67.435 15.0005L67.6786 14.0862H73.0329L72.5756 15.6611Z" fill="#F4AD00"/>
<path d="M33.7675 16.6143L33.5505 16.6326C33.3741 17.2706 33.1747 17.9845 32.9593 18.7554C32.5676 20.1579 32.1323 21.7179 31.7235 23.2243C31.7012 23.1384 31.6789 23.0526 31.6566 22.9664C31.4679 23.9642 31.2736 25 31.0888 26.0118C30.0933 23.1854 28.9647 20.0617 28.2854 18.1822L28.2192 17.9989L27.8983 17.1105L26.9574 17.1901L24.3876 17.4074L23.9389 17.4454L23.434 17.488L23.2766 18.4315L23.244 18.6266C23.0599 19.7292 22.8163 21.0785 22.5537 22.5041C22.3899 23.3927 22.2185 24.3107 22.0495 25.217C21.9463 25.7698 21.8444 26.316 21.7456 26.8482C21.5615 26.2987 21.3691 25.7269 21.1708 25.1368L21.1694 25.1331C20.4868 23.1022 19.7809 21.002 19.1309 19.0027L19.0683 18.811L18.7664 17.8824L17.7935 17.9646L15.7047 18.141L14.8756 18.2112L13.2773 18.3463L13.8205 19.8554L19.7409 36.3066L20.0611 37.1963L21.0034 37.1167L23.7938 36.8807L24.7258 36.8022L24.9002 35.8832L24.9361 35.6935C25.0583 35.0505 25.2027 34.297 25.3558 33.4988L25.3578 33.4885L25.3585 33.4852C25.69 31.7565 26.0854 29.6969 26.4428 27.7591C26.9564 29.2106 27.5026 30.7397 27.9945 32.1159L27.9982 32.1259C28.4215 33.3111 28.8216 34.4304 29.1344 35.3154L29.2 35.5005L29.5172 36.3971L30.4648 36.3169L33.2685 36.0799L34.1902 36.0021L34.3722 35.0954L36.3502 25.2516L37.837 17.8511L38.1598 16.2432L36.526 16.3813L33.7675 16.6143ZM33.4489 33.4403L33.165 34.8528L30.3609 35.0898L30.2954 34.9047C30.1403 34.4667 29.9645 33.9718 29.7748 33.4403C29.5798 32.8924 29.3701 32.3053 29.1541 31.7015C28.749 30.5676 28.314 29.3497 27.8917 28.1612C27.5086 27.0825 27.1365 26.0281 26.8076 25.0825C26.5094 24.2258 26.2468 23.4586 26.0438 22.8439C25.662 25.3671 24.8016 29.852 24.1483 33.2565C24.1363 33.3181 24.1247 33.3793 24.113 33.4403C23.9712 34.1808 23.8398 34.8661 23.7263 35.4639L23.6903 35.6536L20.8995 35.8896L20.0182 33.4403L19.1438 31.0112L14.9791 19.4383L16.0275 19.3498L17.897 19.1917L17.9596 19.3838C18.6116 21.3881 19.3186 23.4916 20.0022 25.5255C20.8712 28.1106 21.6497 30.4265 22.0964 31.8949C22.345 30.3453 22.7923 27.9485 23.2596 25.4443C23.7013 23.0782 24.1579 20.6316 24.4588 18.8296L24.4914 18.6342L27.0609 18.4172L27.1275 18.6006C28.2052 21.5841 30.5373 28.0384 31.4992 31.0106C31.8314 28.6348 32.5546 24.8339 33.1537 21.6846C33.4306 20.2298 33.6696 18.9731 33.837 18.0341L33.8713 17.8414L36.6295 17.6084L33.4489 33.4403Z" fill="#333333"/>
<path d="M104.311 3.48614L69.8859 6.39608L68.3173 6.52855C67.4532 6.11218 66.5566 5.75971 65.631 5.47314C64.4304 5.10137 63.1863 4.84475 61.9329 4.71062C60.6917 4.57815 59.431 4.56418 58.1852 4.66935C56.9394 4.77453 55.6989 4.99985 54.4977 5.33901C53.2846 5.68149 52.101 6.14313 50.98 6.71127C50.129 7.14262 49.3162 7.63189 48.5451 8.1774C48.5327 8.18605 48.5208 8.19437 48.5088 8.20303L46.9405 8.33549L12.4684 11.2494C10.9217 11.3802 9.52519 11.9797 8.40654 12.896C6.57896 14.3924 5.49293 16.7342 5.70628 19.2604L7.28989 37.9941C7.63404 42.0667 11.228 45.1001 15.3008 44.7559L49.7642 41.8427L51.3282 41.7105C52.1965 42.1299 53.0979 42.4847 54.0285 42.7729C55.2286 43.1447 56.4731 43.401 57.7265 43.5351C58.9677 43.6679 60.2284 43.6816 61.4742 43.5764C62.7197 43.4712 63.9605 43.2459 65.1617 42.9067C66.3748 42.5639 67.5584 42.1023 68.6794 41.5345C69.4535 41.1421 70.1958 40.7014 70.9044 40.2145L74.2586 43.0458L89.7819 56.1494C90.833 57.0374 92.1676 57.4625 93.5402 57.3466C93.7486 57.329 93.9539 57.299 94.1553 57.2578C95.2819 57.0258 96.2914 56.428 97.044 55.5357C98.8765 53.3643 98.6009 50.1065 96.4302 48.2743L85.8465 39.3404H83.9374L95.6361 49.2152C97.2879 50.6098 97.4973 53.0887 96.1027 54.7416C95.8121 55.086 95.4713 55.3726 95.0939 55.5943C94.5943 55.8885 94.0312 56.0692 93.4364 56.1195C92.392 56.2077 91.3765 55.8842 90.5764 55.2085L72.0257 39.5495L71.9238 39.4636C72.9509 38.6535 73.8972 37.7375 74.7549 36.7214C75.538 35.7931 76.2267 34.8063 76.8174 33.7672C76.8734 33.6683 76.9286 33.5695 76.9829 33.4699L80.4057 36.3593L77.4888 33.4423C77.6375 33.1807 77.7807 32.9158 77.9171 32.6472L77.552 32.339C77.9131 31.5588 78.223 30.7534 78.4796 29.9243C78.8514 28.7238 79.108 27.4796 79.2418 26.2262C79.3746 24.9851 79.3886 23.7243 79.2834 22.4785C79.1779 21.2327 78.9526 19.9923 78.6134 18.7911C78.2709 17.5779 77.8093 16.3943 77.2411 15.2734C76.0589 12.9399 74.4397 10.8956 72.4281 9.19786C71.7344 8.61208 71.0079 8.07955 70.251 7.60094L104.415 4.71329C107.731 4.43304 110.665 6.83675 111.07 10.1115C111.742 10.8214 112.249 11.6904 112.526 12.655L112.322 10.2483C111.978 6.17541 108.384 3.14166 104.311 3.48614ZM15.197 43.5288C11.8008 43.8157 8.80394 41.2865 8.51704 37.8903L6.93343 19.1569C6.79663 17.538 7.29987 16.0099 8.23147 14.8227C9.2546 13.5193 10.7946 12.627 12.5723 12.4766L46.7827 9.58494C46.1174 10.1834 45.4903 10.8307 44.9045 11.5244C43.2068 13.5357 41.9537 15.8225 41.1798 18.3214C40.808 19.522 40.5514 20.7661 40.4176 22.0195C40.2848 23.2607 40.2709 24.5218 40.3764 25.7672C40.4815 27.013 40.7069 28.2535 41.046 29.4547C41.3885 30.6678 41.8501 31.8514 42.4183 32.9724C43.6005 35.3058 45.2197 37.3501 47.2314 39.0479C47.3485 39.1471 47.467 39.2446 47.5862 39.3404C48.1683 39.8094 48.7724 40.2421 49.3974 40.6378L15.197 43.5288ZM71.6339 10.1388C72.3868 10.7745 73.0754 11.4588 73.6995 12.1827C78.3315 17.5569 79.3852 25.1332 76.5731 31.5126C76.4876 31.7069 76.3984 31.9003 76.3055 32.0924C76.2556 32.1952 76.2047 32.298 76.1528 32.4002C76.1092 32.4861 76.0652 32.572 76.02 32.6572C75.9671 32.7577 75.9128 32.8575 75.8579 32.9571C75.2864 33.9935 74.6054 34.989 73.8136 35.9269C72.9456 36.9554 71.9877 37.8637 70.9609 38.6508C70.7932 38.7793 70.6234 38.9048 70.452 39.0269C70.2783 39.1507 70.1026 39.2709 69.9255 39.388C69.4971 39.6716 69.0581 39.9345 68.6111 40.1788C68.6108 40.1788 68.6108 40.1792 68.6105 40.1792C68.6101 40.1792 68.6101 40.1795 68.6098 40.1795C66.3562 41.4083 63.8849 42.1369 61.3704 42.3492C57.9625 42.6375 54.4748 41.9785 51.3402 40.3366C50.1796 39.7285 49.0673 38.9863 48.0255 38.107C47.2726 37.4713 46.584 36.787 45.9599 36.063C40.8194 30.0987 40.0861 21.4228 44.1527 14.6803C44.6463 13.8618 45.2101 13.0717 45.8458 12.3188C46.7261 11.2757 47.6993 10.3561 48.7424 9.56164C49.6724 8.85305 50.6585 8.24396 51.6847 7.73573C51.685 7.73573 51.685 7.73573 51.6853 7.73573C53.7639 6.70628 56.0085 6.08954 58.289 5.89683C61.6952 5.60893 65.1823 6.26728 68.3163 7.90814C69.4782 8.51622 70.5915 9.2591 71.6339 10.1391V10.1388Z" fill="#333333"/>
<path d="M112.771 15.4819V33.1606C112.771 33.3154 112.765 33.4692 112.754 33.6213C113.613 32.2916 114.056 30.6787 113.912 28.9829L112.771 15.4819Z" fill="#333333"/>
<path d="M100.408 10.9819L99.4655 11.0618L99.2994 11.9931L99.2651 12.1858C99.1001 13.1131 98.8631 14.3585 98.5888 15.8007L98.5848 15.822C98.3292 17.1656 98.0463 18.6511 97.7807 20.0992C97.7634 20.1931 97.7464 20.2863 97.7295 20.3795C96.9716 18.227 96.1359 15.9019 95.4812 14.0859H94.1718C95.349 17.3477 97.2855 22.7376 98.1402 25.3783C98.239 24.672 98.3722 23.8396 98.5266 22.9356C98.891 20.7998 99.3733 18.265 99.7943 16.0523C100.071 14.5972 100.31 13.3407 100.478 12.4018L100.512 12.2091L103.27 11.9761L102.846 14.0859L99.8057 29.2205L97.0019 29.4574L96.9363 29.272C96.6218 28.3834 96.2204 27.2597 95.795 26.0702C94.6894 22.9752 93.3594 19.2535 92.6844 17.2116C92.3026 19.7348 91.4423 24.219 90.7892 27.6229C90.6338 28.4343 90.4897 29.1842 90.3669 29.8315L90.3309 30.0213L87.5405 30.2572L81.7209 14.0859L81.6201 13.806L84.538 13.5594L84.6002 13.7514C84.6365 13.8626 84.6728 13.9741 84.7094 14.0859C85.3305 15.9891 85.9971 17.9717 86.6428 19.8929C87.5119 22.478 88.2903 24.7941 88.737 26.2626C88.8815 25.3636 89.0925 24.1801 89.3354 22.8554C89.2972 22.9948 89.2592 23.1333 89.2213 23.2708C89.0838 22.7069 88.94 22.1192 88.7919 21.5131C88.7051 21.1579 88.6175 20.8008 88.53 20.4424C88.4817 20.703 88.4335 20.9609 88.3862 21.2155C88.2018 20.6654 88.0091 20.0919 87.8101 19.5004C87.2083 17.7105 86.5886 15.8669 86.0051 14.0859C85.9266 13.8463 85.8487 13.6077 85.7715 13.3703L85.7089 13.1786L85.407 12.25L84.4342 12.3322L81.5162 12.5789L79.918 12.714L80.4611 14.2231L84.6362 25.8242L86.3816 30.6743L86.7017 31.5639L87.644 31.4844L90.4348 31.2484L91.3664 31.1695L91.5408 30.2509L91.5767 30.0612C91.6995 29.4152 91.8447 28.6576 91.9988 27.8555C92.3306 26.1258 92.7257 24.0656 93.0835 22.1268C93.5973 23.579 94.1435 25.108 94.6355 26.4846C95.0398 27.6162 95.4582 28.7864 95.7751 29.6828L95.8406 29.8681L96.1578 30.7648L97.1054 30.6846L99.9095 30.4476L100.831 30.3697L101.013 29.4631L104.103 14.0859L104.478 12.2184L104.801 10.6108L103.167 10.749L100.408 10.9819Z" fill="#333333"/>
<path d="M67.4375 15.0012L67.4362 15.0062L69.9537 14.7932L66.4893 32.0379L63.6852 32.2748L63.6199 32.0894C63.3054 31.2008 62.9037 30.0768 62.4786 28.8873C61.3726 25.7923 60.043 22.0705 59.368 20.0286C58.9862 22.5522 58.1259 27.0371 57.4725 30.4416C57.3171 31.2524 57.1733 32.0019 57.0505 32.6486L57.0145 32.8387L54.2241 33.0746L50.0061 21.355L48.3033 16.6234L48.732 16.5871L51.2216 16.3768L51.2838 16.5685C51.9359 18.5728 52.6428 20.6763 53.3264 22.7106C54.1955 25.2957 54.9739 27.6115 55.4206 29.08C55.6692 27.5303 56.1166 25.1333 56.5842 22.629C57.0255 20.2629 57.4822 17.8166 57.783 16.0143L57.8157 15.8193L60.3855 15.602L60.4517 15.7857C61.5297 18.7689 63.8616 25.2235 64.8238 28.1953C65.1556 25.8192 65.8788 22.018 66.4783 18.8687C66.5575 18.4517 66.6337 18.0509 66.7059 17.6695C66.6104 18.013 66.5102 18.3721 66.4061 18.7442L66.4027 18.7555C66.011 20.1581 65.5753 21.7187 65.1666 23.2255C65.0215 22.6666 64.872 22.0965 64.7219 21.526C64.6177 22.0835 64.5139 22.644 64.4131 23.1969C63.4186 20.3728 62.2909 17.2518 61.6123 15.3736L61.6099 15.367L61.5434 15.1836L61.2225 14.2953L60.2816 14.3748L58.1375 14.5562L57.7118 14.5922L56.7586 14.6727L56.6008 15.6166L56.5682 15.8116C56.2893 17.4848 55.8733 19.7254 55.4602 21.9377C55.4316 22.0922 55.4026 22.2466 55.374 22.4007L55.3733 22.403C55.2705 22.9555 55.1687 23.5011 55.0698 24.0329C54.8854 23.4834 54.693 22.9109 54.4947 22.3208L54.494 22.3182L54.493 22.3162C53.8107 20.2856 53.1048 18.1857 52.4551 16.1877L52.3925 15.9957L52.0906 15.0674L51.1178 15.1496L48.4092 15.3786L48.1998 15.3963L46.6016 15.5314L47.1447 17.0405L53.0652 33.4913L53.3853 34.3813L54.3276 34.3015L57.1184 34.0658L58.05 33.9869L58.2244 33.0683L58.2603 32.8783C58.3778 32.2599 58.5159 31.5393 58.6624 30.7754C58.6684 30.7451 58.674 30.7145 58.68 30.6839L58.682 30.6736V30.6713C59.0142 28.9422 59.4096 26.882 59.7671 24.9439C59.8639 25.2178 59.9621 25.4944 60.0606 25.7723C60.1714 25.3706 60.2816 24.9702 60.3898 24.5751C60.7792 26.0635 61.1942 27.6315 61.568 29.0427L61.5693 29.048L61.577 29.0763C61.8972 30.2858 62.1997 31.4281 62.4357 32.3314L62.4853 32.5215L62.5395 32.7288L62.7918 33.4414L62.8414 33.5819L63.789 33.502L64.5046 33.4414L66.5928 33.2647L67.4887 33.1888L67.5144 33.1868L67.57 32.9092L67.6964 32.2802L71.1612 15.0358L71.3519 14.0869H67.6811L67.4375 15.0012Z" fill="#333333"/>
<path d="M24.5666 44.5026L23.7854 44.5738C23.386 44.6104 23.0915 44.9636 23.1281 45.3633C23.1647 45.7627 23.5178 46.0572 23.9176 46.0206L24.6987 45.9494C24.744 45.9454 24.7882 45.9371 24.8305 45.9251C25.1607 45.8319 25.3883 45.5141 25.3561 45.1599C25.3194 44.7605 24.9663 44.466 24.5666 44.5026Z" fill="#333333"/>
<path d="M21.3205 44.798L20.5393 44.8692C20.1399 44.9055 19.8454 45.259 19.882 45.6587C19.9186 46.0581 20.2717 46.3527 20.6715 46.316L21.4526 46.2448C21.4979 46.2408 21.5421 46.2325 21.5844 46.2205C21.9146 46.1277 22.1422 45.8095 22.11 45.4553C22.0737 45.0559 21.7202 44.7614 21.3205 44.798Z" fill="#333333"/>
<path d="M18.09 45.0939L17.3089 45.1651C16.9095 45.2017 16.6149 45.5549 16.6515 45.9546C16.6878 46.354 17.0413 46.6486 17.441 46.6119L18.2221 46.5407C18.2674 46.5367 18.3117 46.5284 18.3539 46.5164C18.6844 46.4232 18.9118 46.1054 18.8795 45.7512C18.8432 45.3518 18.4897 45.0573 18.09 45.0939Z" fill="#333333"/>
<path d="M34.1252 43.6833L33.344 43.7545C32.9446 43.7911 32.6501 44.1442 32.6867 44.544C32.7229 44.9434 33.0764 45.2379 33.4761 45.2013L34.2573 45.1301C34.3026 45.1261 34.3468 45.1178 34.3891 45.1058C34.7193 45.0126 34.9469 44.6947 34.9146 44.3406C34.878 43.9412 34.5249 43.6466 34.1252 43.6833Z" fill="#333333"/>
<path d="M30.883 43.9782L30.1018 44.0494C29.7024 44.0857 29.4079 44.4391 29.4445 44.8389C29.4811 45.2383 29.8342 45.5328 30.234 45.4962L31.0151 45.425C31.0604 45.421 31.1046 45.4127 31.1469 45.4007C31.4771 45.3075 31.7047 44.9896 31.6725 44.6355C31.6358 44.2361 31.2827 43.9416 30.883 43.9782Z" fill="#333333"/>
<path d="M27.6447 44.2736L26.8635 44.3448C26.4641 44.3814 26.1696 44.7346 26.2062 45.1343C26.2425 45.5337 26.5959 45.8282 26.9957 45.7916L27.7768 45.7204C27.8221 45.7164 27.8664 45.7081 27.9086 45.6961C28.2391 45.6029 28.4665 45.2851 28.4342 44.9309C28.3976 44.5315 28.0444 44.237 27.6447 44.2736Z" fill="#333333"/>
<path d="M114.727 21.9C115.126 21.8637 115.421 21.5102 115.384 21.1105L115.313 20.3293C115.309 20.2841 115.301 20.2398 115.289 20.1975C115.196 19.8674 114.878 19.6397 114.524 19.672C114.124 19.7083 113.83 20.0617 113.866 20.4615L113.938 21.2426C113.974 21.642 114.327 21.9366 114.727 21.9Z" fill="#333333"/>
<path d="M115.028 25.1402C115.427 25.1039 115.722 24.7505 115.685 24.3507L115.614 23.5696C115.61 23.5243 115.602 23.48 115.59 23.4378C115.497 23.1076 115.179 22.8799 114.824 22.9122C114.425 22.9488 114.131 23.302 114.167 23.7017L114.238 24.4829C114.275 24.8823 114.628 25.1768 115.028 25.1402Z" fill="#333333"/>
<path d="M115.329 28.3809C115.728 28.3443 116.023 27.9912 115.986 27.5915L115.915 26.8103C115.911 26.765 115.902 26.7208 115.89 26.6785C115.797 26.348 115.479 26.1207 115.125 26.153C114.726 26.1892 114.431 26.5427 114.468 26.9424L114.539 27.7236C114.576 28.123 114.929 28.4175 115.329 28.3809Z" fill="#333333"/>
<path d="M113.121 11.6855C113.158 12.0849 113.511 12.3795 113.911 12.3428C114.31 12.3066 114.605 11.9531 114.568 11.5534L114.497 10.7722C114.493 10.7269 114.484 10.6827 114.472 10.6404C114.379 10.3102 114.061 10.0826 113.707 10.1149C113.308 10.1511 113.013 10.5046 113.05 10.9043L113.121 11.6855Z" fill="#333333"/>
<path d="M114.004 13.3556C113.605 13.3919 113.31 13.7453 113.347 14.1451L113.418 14.9262C113.454 15.3256 113.808 15.6202 114.208 15.5836C114.607 15.547 114.901 15.1938 114.865 14.7941L114.794 14.0129C114.79 13.9677 114.781 13.9234 114.769 13.8811C114.676 13.551 114.358 13.3233 114.004 13.3556Z" fill="#333333"/>
<path d="M114.301 16.5958C113.902 16.6324 113.607 16.9856 113.644 17.3853L113.715 18.1665C113.752 18.5658 114.105 18.8604 114.504 18.8238C114.904 18.7872 115.198 18.434 115.162 18.0343L115.091 17.2532C115.087 17.2079 115.078 17.1636 115.066 17.1214C114.973 16.7912 114.655 16.5635 114.301 16.5958Z" fill="#333333"/>
<path d="M37.9068 48.7397L36.7289 49.9176C36.481 50.1655 36.481 50.5676 36.7289 50.8159C36.9769 51.0638 37.379 51.0638 37.6273 50.8159L38.8051 49.638C39.0531 49.39 39.0531 48.988 38.8051 48.7397C38.5572 48.4917 38.1551 48.4917 37.9068 48.7397Z" fill="#333333"/>
<path d="M42.899 43.746L41.7211 44.9239C41.4732 45.1719 41.4732 45.5739 41.7211 45.8222C41.9691 46.0705 42.3711 46.0702 42.6194 45.8222L43.7973 44.6443C44.0453 44.3964 44.0453 43.9943 43.7973 43.746C43.5494 43.4981 43.1473 43.4981 42.899 43.746Z" fill="#333333"/>
<path d="M42.6194 48.7397C42.3715 48.4917 41.9694 48.4917 41.7211 48.7397C41.4732 48.9876 41.4732 49.3897 41.7211 49.638L42.899 50.8159C43.147 51.0638 43.549 51.0638 43.7973 50.8159C44.0453 50.5679 44.0453 50.1659 43.7973 49.9176L42.6194 48.7397Z" fill="#333333"/>
<path d="M37.6274 43.746C37.3794 43.4981 36.9774 43.4981 36.7291 43.746C36.4808 43.994 36.4811 44.3961 36.7291 44.6443L37.907 45.8222C38.1549 46.0702 38.557 46.0702 38.8053 45.8222C39.0532 45.5743 39.0532 45.1722 38.8053 44.9239L37.6274 43.746Z" fill="#333333"/>
<path d="M67.6247 5.1251L68.4568 4.29303C68.6319 4.11796 68.6319 3.83372 68.4568 3.65865C68.2817 3.48358 67.9975 3.48358 67.8224 3.65865L66.9907 4.49073C66.8156 4.66579 66.8156 4.95003 66.9907 5.1251C67.1657 5.30017 67.45 5.30017 67.6251 5.1251H67.6247Z" fill="#333333"/>
<path d="M71.1482 1.59776L71.9802 0.765681C72.1553 0.590612 72.1553 0.306372 71.9802 0.131302C71.8052 -0.0437674 71.5209 -0.0437674 71.3459 0.131302L70.5141 0.963048C70.339 1.13812 70.339 1.42236 70.5141 1.59743C70.6892 1.7725 70.9734 1.7725 71.1485 1.59743L71.1482 1.59776Z" fill="#333333"/>
<path d="M71.3462 5.12477C71.5213 5.29984 71.8055 5.29984 71.9806 5.12477C72.1556 4.9497 72.1556 4.66546 71.9806 4.49039L71.1485 3.65865C70.9734 3.48358 70.6892 3.48358 70.5141 3.65865C70.339 3.83372 70.339 4.11796 70.5141 4.29303L71.3459 5.12477H71.3462Z" fill="#333333"/>
<path d="M67.8149 1.59776C67.99 1.77283 68.2743 1.77283 68.4493 1.59776C68.6244 1.42269 68.6244 1.13845 68.4493 0.963381L67.6172 0.131302C67.4422 -0.0437674 67.1579 -0.0437674 66.9829 0.131302C66.8078 0.306372 66.8078 0.590612 66.9829 0.765681L67.8146 1.59743L67.8149 1.59776Z" fill="#333333"/>
<path d="M89.7564 62.4023L88.9243 63.2344C88.7492 63.4094 88.7492 63.6937 88.9243 63.8688C89.0993 64.0438 89.3836 64.0438 89.5587 63.8688L90.3904 63.0367C90.5655 62.8616 90.5655 62.5774 90.3904 62.4023C90.2153 62.2272 89.9311 62.2272 89.756 62.4023H89.7564Z" fill="#333333"/>
<path d="M93.2798 58.8745L92.4477 59.7065C92.2726 59.8816 92.2726 60.1659 92.4477 60.3409C92.6228 60.516 92.907 60.516 93.0821 60.3409L93.9138 59.5088C94.0889 59.3338 94.0889 59.0495 93.9138 58.8745C93.7388 58.6994 93.4545 58.6994 93.2795 58.8745H93.2798Z" fill="#333333"/>
<path d="M93.0821 62.4023C92.907 62.2272 92.6228 62.2272 92.4477 62.4023C92.2726 62.5774 92.2726 62.8616 92.4477 63.0367L93.2798 63.8684C93.4549 64.0435 93.7391 64.0435 93.9142 63.8684C94.0892 63.6934 94.0892 63.4091 93.9142 63.234L93.0824 62.402L93.0821 62.4023Z" fill="#333333"/>
<path d="M89.5587 58.8745C89.3836 58.6994 89.0993 58.6994 88.9243 58.8745C88.7492 59.0495 88.7492 59.3338 88.9243 59.5088L89.7564 60.3409C89.9314 60.516 90.2157 60.516 90.3907 60.3409C90.5658 60.1659 90.5658 59.8816 90.3907 59.7065L89.559 58.8745H89.5587Z" fill="#333333"/>
<path d="M0.963381 20.8564L0.131302 21.6885C-0.0437674 21.8635 -0.0437674 22.1478 0.131302 22.3229C0.306372 22.4979 0.59061 22.4979 0.765679 22.3229L1.59776 21.4908C1.77283 21.3157 1.77283 21.0315 1.59776 20.8564C1.42269 20.6813 1.13845 20.6813 0.963381 20.8564Z" fill="#333333"/>
<path d="M4.49073 17.3291L3.65865 18.1611C3.48358 18.3362 3.48358 18.6204 3.65865 18.7955C3.83372 18.9706 4.11795 18.9706 4.29302 18.7955L5.1251 17.9634C5.30017 17.7884 5.30017 17.5041 5.1251 17.3291C4.95003 17.154 4.66579 17.154 4.49073 17.3291Z" fill="#333333"/>
<path d="M4.29302 20.8564C4.11795 20.6813 3.83372 20.6813 3.65865 20.8564C3.48358 21.0315 3.48358 21.3157 3.65865 21.4908L4.49073 22.3229C4.66579 22.4979 4.95003 22.4979 5.1251 22.3229C5.30017 22.1478 5.30017 21.8635 5.1251 21.6885L4.29302 20.8564Z" fill="#333333"/>
<path d="M0.765679 17.3291C0.59061 17.154 0.306372 17.154 0.131302 17.3291C-0.0437674 17.5041 -0.0437674 17.7884 0.131302 17.9634L0.963381 18.7955C1.13845 18.9706 1.42269 18.9706 1.59776 18.7955C1.77283 18.6204 1.77283 18.3362 1.59776 18.1611L0.765679 17.3291Z" fill="#333333"/>
<path d="M115.596 33.4267L114.764 34.2588C114.589 34.4339 114.589 34.7181 114.764 34.8932C114.939 35.0682 115.223 35.0682 115.398 34.8932L116.231 34.0611C116.406 33.886 116.406 33.6018 116.231 33.4267C116.055 33.2516 115.771 33.2516 115.596 33.4267H115.596Z" fill="#333333"/>
<path d="M118.922 31.3653L119.754 30.5333C119.929 30.3582 119.929 30.0739 119.754 29.8989C119.579 29.7238 119.295 29.7238 119.12 29.8989L118.288 30.731C118.112 30.906 118.112 31.1903 118.288 31.3653C118.463 31.5404 118.747 31.5404 118.922 31.3653H118.922Z" fill="#333333"/>
<path d="M118.922 33.4267C118.747 33.2516 118.463 33.2516 118.288 33.4267C118.112 33.6018 118.112 33.886 118.288 34.0611L119.12 34.8928C119.295 35.0679 119.579 35.0679 119.754 34.8928C119.929 34.7178 119.929 34.4335 119.754 34.2585L118.922 33.4267H118.922Z" fill="#333333"/>
<path d="M115.398 29.8989C115.223 29.7238 114.939 29.7238 114.764 29.8989C114.589 30.0739 114.589 30.3582 114.764 30.5333L115.596 31.365C115.771 31.5401 116.055 31.5401 116.23 31.365C116.405 31.1899 116.405 30.9057 116.23 30.7306L115.398 29.8989H115.398Z" fill="#333333"/>
<path d="M33.7675 16.6143L33.5505 16.6326C33.3741 17.2706 33.1747 17.9845 32.9593 18.7554C32.5676 20.1579 32.1323 21.7179 31.7235 23.2243C31.7012 23.1384 31.6789 23.0526 31.6566 22.9664C31.4679 23.9642 31.2736 25 31.0888 26.0118C30.0933 23.1854 28.9647 20.0617 28.2854 18.1822L28.2192 17.9989L27.8983 17.1105L26.9574 17.1901L24.3876 17.4074L23.9389 17.4454L23.434 17.488L23.2766 18.4315L23.244 18.6266C23.0599 19.7292 22.8163 21.0785 22.5537 22.5041C22.3899 23.3927 22.2185 24.3107 22.0495 25.217C21.9463 25.7698 21.8444 26.316 21.7456 26.8482C21.5615 26.2987 21.3691 25.7269 21.1708 25.1368L21.1694 25.1331C20.4868 23.1022 19.7809 21.002 19.1309 19.0027L19.0683 18.811L18.7664 17.8824L17.7935 17.9646L15.7047 18.141L14.8756 18.2112L13.2773 18.3463L13.8205 19.8554L19.7409 36.3066L20.0611 37.1963L21.0034 37.1167L23.7938 36.8807L24.7258 36.8022L24.9002 35.8832L24.9361 35.6935C25.0583 35.0505 25.2027 34.297 25.3558 33.4988L25.3578 33.4885L25.3585 33.4852C25.69 31.7565 26.0854 29.6969 26.4428 27.7591C26.9564 29.2106 27.5026 30.7397 27.9945 32.1159L27.9982 32.1259C28.4215 33.3111 28.8216 34.4304 29.1344 35.3154L29.2 35.5005L29.5172 36.3971L30.4648 36.3169L33.2685 36.0799L34.1902 36.0021L34.3722 35.0954L36.3502 25.2516L37.837 17.8511L38.1598 16.2432L36.526 16.3813L33.7675 16.6143ZM33.4489 33.4403L33.165 34.8528L30.3609 35.0898L30.2954 34.9047C30.1403 34.4667 29.9645 33.9718 29.7748 33.4403C29.5798 32.8924 29.3701 32.3053 29.1541 31.7015C28.749 30.5676 28.314 29.3497 27.8917 28.1612C27.5086 27.0825 27.1365 26.0281 26.8076 25.0825C26.5094 24.2258 26.2468 23.4586 26.0438 22.8439C25.662 25.3671 24.8016 29.852 24.1483 33.2565C24.1363 33.3181 24.1247 33.3793 24.113 33.4403C23.9712 34.1808 23.8398 34.8661 23.7263 35.4639L23.6903 35.6536L20.8995 35.8896L20.0182 33.4403L19.1438 31.0112L14.9791 19.4383L16.0275 19.3498L17.897 19.1917L17.9596 19.3838C18.6116 21.3881 19.3186 23.4916 20.0022 25.5255C20.8712 28.1106 21.6497 30.4265 22.0964 31.8949C22.345 30.3453 22.7923 27.9485 23.2596 25.4443C23.7013 23.0782 24.1579 20.6316 24.4588 18.8296L24.4914 18.6342L27.0609 18.4172L27.1275 18.6006C28.2052 21.5841 30.5373 28.0384 31.4992 31.0106C31.8314 28.6348 32.5546 24.8339 33.1537 21.6846C33.4306 20.2298 33.6696 18.9731 33.837 18.0341L33.8713 17.8414L36.6295 17.6084L33.4489 33.4403Z" fill="#333333"/>
<path d="M104.311 3.48614L69.8859 6.39608L68.3173 6.52855C67.4532 6.11218 66.5566 5.75971 65.631 5.47314C64.4304 5.10137 63.1863 4.84475 61.9329 4.71062C60.6917 4.57815 59.431 4.56418 58.1852 4.66935C56.9394 4.77453 55.6989 4.99985 54.4977 5.33901C53.2846 5.68149 52.101 6.14313 50.98 6.71127C50.129 7.14262 49.3162 7.63189 48.5451 8.1774C48.5327 8.18605 48.5208 8.19437 48.5088 8.20303L46.9405 8.33549L12.4684 11.2494C10.9217 11.3802 9.52519 11.9797 8.40654 12.896C6.57896 14.3924 5.49293 16.7342 5.70628 19.2604L7.28989 37.9941C7.63404 42.0667 11.228 45.1001 15.3008 44.7559L49.7642 41.8427L51.3282 41.7105C52.1965 42.1299 53.0979 42.4847 54.0285 42.7729C55.2286 43.1447 56.4731 43.401 57.7265 43.5351C58.9677 43.6679 60.2284 43.6816 61.4742 43.5764C62.7197 43.4712 63.9605 43.2459 65.1617 42.9067C66.3748 42.5639 67.5584 42.1023 68.6794 41.5345C69.4535 41.1421 70.1958 40.7014 70.9044 40.2145L74.2586 43.0458L89.7819 56.1494C90.833 57.0374 92.1676 57.4625 93.5402 57.3466C93.7486 57.329 93.9539 57.299 94.1553 57.2578C95.2819 57.0258 96.2914 56.428 97.044 55.5357C98.8765 53.3643 98.6009 50.1065 96.4302 48.2743L85.8465 39.3404H83.9374L95.6361 49.2152C97.2879 50.6098 97.4973 53.0887 96.1027 54.7416C95.8121 55.086 95.4713 55.3726 95.0939 55.5943C94.5943 55.8885 94.0312 56.0692 93.4364 56.1195C92.392 56.2077 91.3765 55.8842 90.5764 55.2085L72.0257 39.5495L71.9238 39.4636C72.9509 38.6535 73.8972 37.7375 74.7549 36.7214C75.538 35.7931 76.2267 34.8063 76.8174 33.7672C76.8734 33.6683 76.9286 33.5695 76.9829 33.4699L80.4057 36.3593L77.4888 33.4423C77.6375 33.1807 77.7807 32.9158 77.9171 32.6472L77.552 32.339C77.9131 31.5588 78.223 30.7534 78.4796 29.9243C78.8514 28.7238 79.108 27.4796 79.2418 26.2262C79.3746 24.9851 79.3886 23.7243 79.2834 22.4785C79.1779 21.2327 78.9526 19.9923 78.6134 18.7911C78.2709 17.5779 77.8093 16.3943 77.2411 15.2734C76.0589 12.9399 74.4397 10.8956 72.4281 9.19786C71.7344 8.61208 71.0079 8.07955 70.251 7.60094L104.415 4.71329C107.731 4.43304 110.665 6.83675 111.07 10.1115C111.742 10.8214 112.249 11.6904 112.526 12.655L112.322 10.2483C111.978 6.17541 108.384 3.14166 104.311 3.48614ZM15.197 43.5288C11.8008 43.8157 8.80394 41.2865 8.51704 37.8903L6.93343 19.1569C6.79663 17.538 7.29987 16.0099 8.23147 14.8227C9.2546 13.5193 10.7946 12.627 12.5723 12.4766L46.7827 9.58494C46.1174 10.1834 45.4903 10.8307 44.9045 11.5244C43.2068 13.5357 41.9537 15.8225 41.1798 18.3214C40.808 19.522 40.5514 20.7661 40.4176 22.0195C40.2848 23.2607 40.2709 24.5218 40.3764 25.7672C40.4815 27.013 40.7069 28.2535 41.046 29.4547C41.3885 30.6678 41.8501 31.8514 42.4183 32.9724C43.6005 35.3058 45.2197 37.3501 47.2314 39.0479C47.3485 39.1471 47.467 39.2446 47.5862 39.3404C48.1683 39.8094 48.7724 40.2421 49.3974 40.6378L15.197 43.5288ZM71.6339 10.1388C72.3868 10.7745 73.0754 11.4588 73.6995 12.1827C78.3315 17.5569 79.3852 25.1332 76.5731 31.5126C76.4876 31.7069 76.3984 31.9003 76.3055 32.0924C76.2556 32.1952 76.2047 32.298 76.1528 32.4002C76.1092 32.4861 76.0652 32.572 76.02 32.6572C75.9671 32.7577 75.9128 32.8575 75.8579 32.9571C75.2864 33.9935 74.6054 34.989 73.8136 35.9269C72.9456 36.9554 71.9877 37.8637 70.9609 38.6508C70.7932 38.7793 70.6234 38.9048 70.452 39.0269C70.2783 39.1507 70.1026 39.2709 69.9255 39.388C69.4971 39.6716 69.0581 39.9345 68.6111 40.1788C68.6108 40.1788 68.6108 40.1792 68.6105 40.1792C68.6101 40.1792 68.6101 40.1795 68.6098 40.1795C66.3562 41.4083 63.8849 42.1369 61.3704 42.3492C57.9625 42.6375 54.4748 41.9785 51.3402 40.3366C50.1796 39.7285 49.0673 38.9863 48.0255 38.107C47.2726 37.4713 46.584 36.787 45.9599 36.063C40.8194 30.0987 40.0861 21.4228 44.1527 14.6803C44.6463 13.8618 45.2101 13.0717 45.8458 12.3188C46.7261 11.2757 47.6993 10.3561 48.7424 9.56164C49.6724 8.85305 50.6585 8.24396 51.6847 7.73573C51.685 7.73573 51.685 7.73573 51.6853 7.73573C53.7639 6.70628 56.0085 6.08954 58.289 5.89683C61.6952 5.60893 65.1823 6.26728 68.3163 7.90814C69.4782 8.51622 70.5915 9.2591 71.6339 10.1391V10.1388Z" fill="#333333"/>
<path d="M112.771 15.4819V33.1606C112.771 33.3154 112.765 33.4692 112.754 33.6213C113.613 32.2916 114.056 30.6787 113.912 28.9829L112.771 15.4819Z" fill="#333333"/>
<path d="M100.408 10.9819L99.4655 11.0618L99.2994 11.9931L99.2651 12.1858C99.1001 13.1131 98.8631 14.3585 98.5888 15.8007L98.5848 15.822C98.3292 17.1656 98.0463 18.6511 97.7807 20.0992C97.7634 20.1931 97.7464 20.2863 97.7295 20.3795C96.9716 18.227 96.1359 15.9019 95.4812 14.0859H94.1718C95.349 17.3477 97.2855 22.7376 98.1402 25.3783C98.239 24.672 98.3722 23.8396 98.5266 22.9356C98.891 20.7998 99.3733 18.265 99.7943 16.0523C100.071 14.5972 100.31 13.3407 100.478 12.4018L100.512 12.2091L103.27 11.9761L102.846 14.0859L99.8057 29.2205L97.0019 29.4574L96.9363 29.272C96.6218 28.3834 96.2204 27.2597 95.795 26.0702C94.6894 22.9752 93.3594 19.2535 92.6844 17.2116C92.3026 19.7348 91.4423 24.219 90.7892 27.6229C90.6338 28.4343 90.4897 29.1842 90.3669 29.8315L90.3309 30.0213L87.5405 30.2572L81.7209 14.0859L81.6201 13.806L84.538 13.5594L84.6002 13.7514C84.6365 13.8626 84.6728 13.9741 84.7094 14.0859C85.3305 15.9891 85.9971 17.9717 86.6428 19.8929C87.5119 22.478 88.2903 24.7941 88.737 26.2626C88.8815 25.3636 89.0925 24.1801 89.3354 22.8554C89.2972 22.9948 89.2592 23.1333 89.2213 23.2708C89.0838 22.7069 88.94 22.1192 88.7919 21.5131C88.7051 21.1579 88.6175 20.8008 88.53 20.4424C88.4817 20.703 88.4335 20.9609 88.3862 21.2155C88.2018 20.6654 88.0091 20.0919 87.8101 19.5004C87.2083 17.7105 86.5886 15.8669 86.0051 14.0859C85.9266 13.8463 85.8487 13.6077 85.7715 13.3703L85.7089 13.1786L85.407 12.25L84.4342 12.3322L81.5162 12.5789L79.918 12.714L80.4611 14.2231L84.6362 25.8242L86.3816 30.6743L86.7017 31.5639L87.644 31.4844L90.4348 31.2484L91.3664 31.1695L91.5408 30.2509L91.5767 30.0612C91.6995 29.4152 91.8447 28.6576 91.9988 27.8555C92.3306 26.1258 92.7257 24.0656 93.0835 22.1268C93.5973 23.579 94.1435 25.108 94.6355 26.4846C95.0398 27.6162 95.4582 28.7864 95.7751 29.6828L95.8406 29.8681L96.1578 30.7648L97.1054 30.6846L99.9095 30.4476L100.831 30.3697L101.013 29.4631L104.103 14.0859L104.478 12.2184L104.801 10.6108L103.167 10.749L100.408 10.9819Z" fill="#333333"/>
<path d="M67.4375 15.0012L67.4362 15.0062L69.9537 14.7932L66.4893 32.0379L63.6852 32.2748L63.6199 32.0894C63.3054 31.2008 62.9037 30.0768 62.4786 28.8873C61.3726 25.7923 60.043 22.0705 59.368 20.0286C58.9862 22.5522 58.1259 27.0371 57.4725 30.4416C57.3171 31.2524 57.1733 32.0019 57.0505 32.6486L57.0145 32.8387L54.2241 33.0746L50.0061 21.355L48.3033 16.6234L48.732 16.5871L51.2216 16.3768L51.2838 16.5685C51.9359 18.5728 52.6428 20.6763 53.3264 22.7106C54.1955 25.2957 54.9739 27.6115 55.4206 29.08C55.6692 27.5303 56.1166 25.1333 56.5842 22.629C57.0255 20.2629 57.4822 17.8166 57.783 16.0143L57.8157 15.8193L60.3855 15.602L60.4517 15.7857C61.5297 18.7689 63.8616 25.2235 64.8238 28.1953C65.1556 25.8192 65.8788 22.018 66.4783 18.8687C66.5575 18.4517 66.6337 18.0509 66.7059 17.6695C66.6104 18.013 66.5102 18.3721 66.4061 18.7442L66.4027 18.7555C66.011 20.1581 65.5753 21.7187 65.1666 23.2255C65.0215 22.6666 64.872 22.0965 64.7219 21.526C64.6177 22.0835 64.5139 22.644 64.4131 23.1969C63.4186 20.3728 62.2909 17.2518 61.6123 15.3736L61.6099 15.367L61.5434 15.1836L61.2225 14.2953L60.2816 14.3748L58.1375 14.5562L57.7118 14.5922L56.7586 14.6727L56.6008 15.6166L56.5682 15.8116C56.2893 17.4848 55.8733 19.7254 55.4602 21.9377C55.4316 22.0922 55.4026 22.2466 55.374 22.4007L55.3733 22.403C55.2705 22.9555 55.1687 23.5011 55.0698 24.0329C54.8854 23.4834 54.693 22.9109 54.4947 22.3208L54.494 22.3182L54.493 22.3162C53.8107 20.2856 53.1048 18.1857 52.4551 16.1877L52.3925 15.9957L52.0906 15.0674L51.1178 15.1496L48.4092 15.3786L48.1998 15.3963L46.6016 15.5314L47.1447 17.0405L53.0652 33.4913L53.3853 34.3813L54.3276 34.3015L57.1184 34.0658L58.05 33.9869L58.2244 33.0683L58.2603 32.8783C58.3778 32.2599 58.5159 31.5393 58.6624 30.7754C58.6684 30.7451 58.674 30.7145 58.68 30.6839L58.682 30.6736V30.6713C59.0142 28.9422 59.4096 26.882 59.7671 24.9439C59.8639 25.2178 59.9621 25.4944 60.0606 25.7723C60.1714 25.3706 60.2816 24.9702 60.3898 24.5751C60.7792 26.0635 61.1942 27.6315 61.568 29.0427L61.5693 29.048L61.577 29.0763C61.8972 30.2858 62.1997 31.4281 62.4357 32.3314L62.4853 32.5215L62.5395 32.7288L62.7918 33.4414L62.8414 33.5819L63.789 33.502L64.5046 33.4414L66.5928 33.2647L67.4887 33.1888L67.5144 33.1868L67.57 32.9092L67.6964 32.2802L71.1612 15.0358L71.3519 14.0869H67.6811L67.4375 15.0012Z" fill="#333333"/>
<path d="M24.5666 44.5026L23.7854 44.5738C23.386 44.6104 23.0915 44.9636 23.1281 45.3633C23.1647 45.7627 23.5178 46.0572 23.9176 46.0206L24.6987 45.9494C24.744 45.9454 24.7882 45.9371 24.8305 45.9251C25.1607 45.8319 25.3883 45.5141 25.3561 45.1599C25.3194 44.7605 24.9663 44.466 24.5666 44.5026Z" fill="#333333"/>
<path d="M21.3205 44.798L20.5393 44.8692C20.1399 44.9055 19.8454 45.259 19.882 45.6587C19.9186 46.0581 20.2717 46.3527 20.6715 46.316L21.4526 46.2448C21.4979 46.2408 21.5421 46.2325 21.5844 46.2205C21.9146 46.1277 22.1422 45.8095 22.11 45.4553C22.0737 45.0559 21.7202 44.7614 21.3205 44.798Z" fill="#333333"/>
<path d="M18.09 45.0939L17.3089 45.1651C16.9095 45.2017 16.6149 45.5549 16.6515 45.9546C16.6878 46.354 17.0413 46.6486 17.441 46.6119L18.2221 46.5407C18.2674 46.5367 18.3117 46.5284 18.3539 46.5164C18.6844 46.4232 18.9118 46.1054 18.8795 45.7512C18.8432 45.3518 18.4897 45.0573 18.09 45.0939Z" fill="#333333"/>
<path d="M34.1252 43.6833L33.344 43.7545C32.9446 43.7911 32.6501 44.1442 32.6867 44.544C32.7229 44.9434 33.0764 45.2379 33.4761 45.2013L34.2573 45.1301C34.3026 45.1261 34.3468 45.1178 34.3891 45.1058C34.7193 45.0126 34.9469 44.6947 34.9146 44.3406C34.878 43.9412 34.5249 43.6466 34.1252 43.6833Z" fill="#333333"/>
<path d="M30.883 43.9782L30.1018 44.0494C29.7024 44.0857 29.4079 44.4391 29.4445 44.8389C29.4811 45.2383 29.8342 45.5328 30.234 45.4962L31.0151 45.425C31.0604 45.421 31.1046 45.4127 31.1469 45.4007C31.4771 45.3075 31.7047 44.9896 31.6725 44.6355C31.6358 44.2361 31.2827 43.9416 30.883 43.9782Z" fill="#333333"/>
<path d="M27.6447 44.2736L26.8635 44.3448C26.4641 44.3814 26.1696 44.7346 26.2062 45.1343C26.2425 45.5337 26.5959 45.8282 26.9957 45.7916L27.7768 45.7204C27.8221 45.7164 27.8664 45.7081 27.9086 45.6961C28.2391 45.6029 28.4665 45.2851 28.4342 44.9309C28.3976 44.5315 28.0444 44.237 27.6447 44.2736Z" fill="#333333"/>
<path d="M114.727 21.9C115.126 21.8637 115.421 21.5102 115.384 21.1105L115.313 20.3293C115.309 20.2841 115.301 20.2398 115.289 20.1975C115.196 19.8674 114.878 19.6397 114.524 19.672C114.124 19.7083 113.83 20.0617 113.866 20.4615L113.938 21.2426C113.974 21.642 114.327 21.9366 114.727 21.9Z" fill="#333333"/>
<path d="M115.028 25.1402C115.427 25.1039 115.722 24.7505 115.685 24.3507L115.614 23.5696C115.61 23.5243 115.602 23.48 115.59 23.4378C115.497 23.1076 115.179 22.8799 114.824 22.9122C114.425 22.9488 114.131 23.302 114.167 23.7017L114.238 24.4829C114.275 24.8823 114.628 25.1768 115.028 25.1402Z" fill="#333333"/>
<path d="M115.329 28.3809C115.728 28.3443 116.023 27.9912 115.986 27.5915L115.915 26.8103C115.911 26.765 115.902 26.7208 115.89 26.6785C115.797 26.348 115.479 26.1207 115.125 26.153C114.726 26.1892 114.431 26.5427 114.468 26.9424L114.539 27.7236C114.576 28.123 114.929 28.4175 115.329 28.3809Z" fill="#333333"/>
<path d="M113.121 11.6855C113.158 12.0849 113.511 12.3795 113.911 12.3428C114.31 12.3066 114.605 11.9531 114.568 11.5534L114.497 10.7722C114.493 10.7269 114.484 10.6827 114.472 10.6404C114.379 10.3102 114.061 10.0826 113.707 10.1149C113.308 10.1511 113.013 10.5046 113.05 10.9043L113.121 11.6855Z" fill="#333333"/>
<path d="M114.004 13.3556C113.605 13.3919 113.31 13.7453 113.347 14.1451L113.418 14.9262C113.454 15.3256 113.808 15.6202 114.208 15.5836C114.607 15.547 114.901 15.1938 114.865 14.7941L114.794 14.0129C114.79 13.9677 114.781 13.9234 114.769 13.8811C114.676 13.551 114.358 13.3233 114.004 13.3556Z" fill="#333333"/>
<path d="M114.301 16.5958C113.902 16.6324 113.607 16.9856 113.644 17.3853L113.715 18.1665C113.752 18.5658 114.105 18.8604 114.504 18.8238C114.904 18.7872 115.198 18.434 115.162 18.0343L115.091 17.2532C115.087 17.2079 115.078 17.1636 115.066 17.1214C114.973 16.7912 114.655 16.5635 114.301 16.5958Z" fill="#333333"/>
<path d="M37.9068 48.7397L36.7289 49.9176C36.481 50.1655 36.481 50.5676 36.7289 50.8159C36.9769 51.0638 37.379 51.0638 37.6273 50.8159L38.8051 49.638C39.0531 49.39 39.0531 48.988 38.8051 48.7397C38.5572 48.4917 38.1551 48.4917 37.9068 48.7397Z" fill="#333333"/>
<path d="M42.899 43.746L41.7211 44.9239C41.4732 45.1719 41.4732 45.5739 41.7211 45.8222C41.9691 46.0705 42.3711 46.0702 42.6194 45.8222L43.7973 44.6443C44.0453 44.3964 44.0453 43.9943 43.7973 43.746C43.5494 43.4981 43.1473 43.4981 42.899 43.746Z" fill="#333333"/>
<path d="M42.6194 48.7397C42.3715 48.4917 41.9694 48.4917 41.7211 48.7397C41.4732 48.9876 41.4732 49.3897 41.7211 49.638L42.899 50.8159C43.147 51.0638 43.549 51.0638 43.7973 50.8159C44.0453 50.5679 44.0453 50.1659 43.7973 49.9176L42.6194 48.7397Z" fill="#333333"/>
<path d="M37.6274 43.746C37.3794 43.4981 36.9774 43.4981 36.7291 43.746C36.4808 43.994 36.4811 44.3961 36.7291 44.6443L37.907 45.8222C38.1549 46.0702 38.557 46.0702 38.8053 45.8222C39.0532 45.5743 39.0532 45.1722 38.8053 44.9239L37.6274 43.746Z" fill="#333333"/>
<path d="M67.6247 5.1251L68.4568 4.29303C68.6319 4.11796 68.6319 3.83372 68.4568 3.65865C68.2817 3.48358 67.9975 3.48358 67.8224 3.65865L66.9907 4.49073C66.8156 4.66579 66.8156 4.95003 66.9907 5.1251C67.1657 5.30017 67.45 5.30017 67.6251 5.1251H67.6247Z" fill="#333333"/>
<path d="M71.1482 1.59776L71.9802 0.765681C72.1553 0.590612 72.1553 0.306372 71.9802 0.131302C71.8052 -0.0437674 71.5209 -0.0437674 71.3459 0.131302L70.5141 0.963048C70.339 1.13812 70.339 1.42236 70.5141 1.59743C70.6892 1.7725 70.9734 1.7725 71.1485 1.59743L71.1482 1.59776Z" fill="#333333"/>
<path d="M71.3462 5.12477C71.5213 5.29984 71.8055 5.29984 71.9806 5.12477C72.1556 4.9497 72.1556 4.66546 71.9806 4.49039L71.1485 3.65865C70.9734 3.48358 70.6892 3.48358 70.5141 3.65865C70.339 3.83372 70.339 4.11796 70.5141 4.29303L71.3459 5.12477H71.3462Z" fill="#333333"/>
<path d="M67.8149 1.59776C67.99 1.77283 68.2743 1.77283 68.4493 1.59776C68.6244 1.42269 68.6244 1.13845 68.4493 0.963381L67.6172 0.131302C67.4422 -0.0437674 67.1579 -0.0437674 66.9829 0.131302C66.8078 0.306372 66.8078 0.590612 66.9829 0.765681L67.8146 1.59743L67.8149 1.59776Z" fill="#333333"/>
<path d="M89.7564 62.4023L88.9243 63.2344C88.7492 63.4094 88.7492 63.6937 88.9243 63.8688C89.0993 64.0438 89.3836 64.0438 89.5587 63.8688L90.3904 63.0367C90.5655 62.8616 90.5655 62.5774 90.3904 62.4023C90.2153 62.2272 89.9311 62.2272 89.756 62.4023H89.7564Z" fill="#333333"/>
<path d="M93.2798 58.8745L92.4477 59.7065C92.2726 59.8816 92.2726 60.1659 92.4477 60.3409C92.6228 60.516 92.907 60.516 93.0821 60.3409L93.9138 59.5088C94.0889 59.3338 94.0889 59.0495 93.9138 58.8745C93.7388 58.6994 93.4545 58.6994 93.2795 58.8745H93.2798Z" fill="#333333"/>
<path d="M93.0821 62.4023C92.907 62.2272 92.6228 62.2272 92.4477 62.4023C92.2726 62.5774 92.2726 62.8616 92.4477 63.0367L93.2798 63.8684C93.4549 64.0435 93.7391 64.0435 93.9142 63.8684C94.0892 63.6934 94.0892 63.4091 93.9142 63.234L93.0824 62.402L93.0821 62.4023Z" fill="#333333"/>
<path d="M89.5587 58.8745C89.3836 58.6994 89.0993 58.6994 88.9243 58.8745C88.7492 59.0495 88.7492 59.3338 88.9243 59.5088L89.7564 60.3409C89.9314 60.516 90.2157 60.516 90.3907 60.3409C90.5658 60.1659 90.5658 59.8816 90.3907 59.7065L89.559 58.8745H89.5587Z" fill="#333333"/>
<path d="M0.963381 20.8564L0.131302 21.6885C-0.0437674 21.8635 -0.0437674 22.1478 0.131302 22.3229C0.306372 22.4979 0.59061 22.4979 0.765679 22.3229L1.59776 21.4908C1.77283 21.3157 1.77283 21.0315 1.59776 20.8564C1.42269 20.6813 1.13845 20.6813 0.963381 20.8564Z" fill="#333333"/>
<path d="M4.49073 17.3291L3.65865 18.1611C3.48358 18.3362 3.48358 18.6204 3.65865 18.7955C3.83372 18.9706 4.11795 18.9706 4.29302 18.7955L5.1251 17.9634C5.30017 17.7884 5.30017 17.5041 5.1251 17.3291C4.95003 17.154 4.66579 17.154 4.49073 17.3291Z" fill="#333333"/>
<path d="M4.29302 20.8564C4.11795 20.6813 3.83372 20.6813 3.65865 20.8564C3.48358 21.0315 3.48358 21.3157 3.65865 21.4908L4.49073 22.3229C4.66579 22.4979 4.95003 22.4979 5.1251 22.3229C5.30017 22.1478 5.30017 21.8635 5.1251 21.6885L4.29302 20.8564Z" fill="#333333"/>
<path d="M0.765679 17.3291C0.59061 17.154 0.306372 17.154 0.131302 17.3291C-0.0437674 17.5041 -0.0437674 17.7884 0.131302 17.9634L0.963381 18.7955C1.13845 18.9706 1.42269 18.9706 1.59776 18.7955C1.77283 18.6204 1.77283 18.3362 1.59776 18.1611L0.765679 17.3291Z" fill="#333333"/>
<path d="M115.596 33.4267L114.764 34.2588C114.589 34.4339 114.589 34.7181 114.764 34.8932C114.939 35.0682 115.223 35.0682 115.398 34.8932L116.231 34.0611C116.406 33.886 116.406 33.6018 116.231 33.4267C116.055 33.2516 115.771 33.2516 115.596 33.4267H115.596Z" fill="#333333"/>
<path d="M118.922 31.3653L119.754 30.5333C119.929 30.3582 119.929 30.0739 119.754 29.8989C119.579 29.7238 119.295 29.7238 119.12 29.8989L118.288 30.731C118.112 30.906 118.112 31.1903 118.288 31.3653C118.463 31.5404 118.747 31.5404 118.922 31.3653H118.922Z" fill="#333333"/>
<path d="M118.922 33.4267C118.747 33.2516 118.463 33.2516 118.288 33.4267C118.112 33.6018 118.112 33.886 118.288 34.0611L119.12 34.8928C119.295 35.0679 119.579 35.0679 119.754 34.8928C119.929 34.7178 119.929 34.4335 119.754 34.2585L118.922 33.4267H118.922Z" fill="#333333"/>
<path d="M115.398 29.8989C115.223 29.7238 114.939 29.7238 114.764 29.8989C114.589 30.0739 114.589 30.3582 114.764 30.5333L115.596 31.365C115.771 31.5401 116.055 31.5401 116.23 31.365C116.405 31.1899 116.405 30.9057 116.23 30.7306L115.398 29.8989H115.398Z" fill="#333333"/>
</svg>
